<?xml version="1.0" standalone="no"?>
<!DOCTYPE svg PUBLIC "-//W3C//DTD SVG 20010904//EN"
 "http://www.w3.org/TR/2001/REC-SVG-20010904/DTD/svg10.dtd">
<svg version="1.0" xmlns="http://www.w3.org/2000/svg"
 width="600.000000pt" height="600.000000pt" viewBox="0 0 600.000000 600.000000"
 preserveAspectRatio="xMidYMid meet">
<metadata>
Created by potrace 1.11, written by Peter Selinger 2001-2013
</metadata>
<g transform="translate(0.000000,600.000000) scale(0.100000,-0.100000)"
fill="#000000" stroke="none">
<path d="M2070 5982 c0 -31 31 -49 95 -57 33 -4 69 -9 81 -10 45 -6 64 -27 62
-71 l-1 -40 -71 -22 c-39 -12 -90 -22 -113 -22 -41 0 -43 -2 -43 -28 0 -30 25
-59 50 -59 20 0 142 -42 156 -54 6 -5 18 -7 26 -4 35 14 110 -39 102 -71 -3
-12 1 -26 10 -34 14 -11 20 -10 36 5 11 10 20 24 20 32 0 7 11 13 25 13 24 0
75 42 75 61 0 5 17 20 38 33 32 21 103 34 188 36 7 0 28 21 49 46 33 40 36 47
23 61 -19 18 -111 25 -169 12 -36 -8 -47 -7 -68 9 -37 27 -45 69 -20 104 11
15 32 31 47 34 40 10 44 14 31 30 -16 20 -256 20 -284 1 -25 -17 -85 -30 -85
-18 0 18 -66 31 -161 31 -90 0 -99 -2 -99 -18z"/>
<path d="M3817 5979 c-5 -20 0 -112 9 -156 2 -12 12 -22 22 -22 9 0 29 -2 44
-5 20 -3 31 2 43 20 9 14 20 22 26 18 5 -3 16 -1 22 5 13 10 71 8 149 -5 29
-4 39 -2 44 9 11 30 -14 55 -66 66 -28 6 -72 22 -98 36 -26 14 -54 25 -62 25
-8 0 -24 7 -34 15 -11 8 -36 15 -57 15 -29 0 -38 -4 -42 -21z"/>
<path d="M5433 5916 c-18 -11 -36 -33 -42 -48 -9 -26 -8 -28 27 -38 57 -16 68
-13 114 30 l43 39 -35 14 c-61 25 -74 26 -107 3z"/>
<path d="M1119 5823 c-11 -13 -11 -17 -1 -20 7 -3 12 -23 12 -53 0 -73 13
-100 50 -100 31 0 32 2 44 75 3 17 8 42 12 58 4 16 2 33 -6 42 -17 21 -94 20
-111 -2z"/>
<path d="M5077 5823 c-10 -18 23 -70 57 -88 35 -19 37 -19 68 -1 32 18 58 43
58 56 0 17 -174 48 -183 33z"/>
<path d="M3526 5784 c-23 -23 -20 -32 17 -49 l32 -15 -32 6 -33 6 15 -36 c8
-19 15 -60 15 -91 0 -48 -4 -60 -27 -82 -40 -37 -59 -41 -145 -34 -48 4 -78 3
-78 -3 0 -20 24 -76 33 -76 5 0 7 7 3 15 -12 31 11 14 27 -21 16 -32 21 -35
45 -29 121 33 247 33 396 1 61 -13 118 -24 126 -24 8 0 25 -4 38 -7 25 -8 27
0 12 40 -7 19 -7 24 1 19 7 -4 10 -1 7 7 -6 17 -62 23 -88 9 -18 -10 -19 -14
-8 -27 12 -15 11 -15 -8 -3 -18 11 -20 16 -9 27 8 7 19 13 25 13 6 0 9 4 5 9
-3 5 0 13 6 17 8 4 9 3 5 -4 -5 -8 0 -12 13 -12 26 0 27 20 2 27 -11 3 -17 11
-15 18 6 15 -87 31 -131 23 -13 -3 -22 -1 -19 3 3 5 12 9 20 9 8 0 14 5 14 10
0 6 -12 10 -27 10 -19 0 -24 3 -15 9 8 5 11 17 7 33 -3 13 -7 52 -8 86 -1 33
-7 65 -12 71 -12 11 -157 61 -179 61 -8 0 -22 -7 -30 -16z m184 -257 c0 -2
-10 -12 -22 -23 l-23 -19 19 23 c18 21 26 27 26 19z m12 -47 c-12 -11 -25 -20
-29 -20 -9 1 36 40 45 40 3 0 -4 -9 -16 -20z m-47 -68 c-6 -7 -34 29 -34 43 0
6 9 -1 20 -14 11 -13 17 -26 14 -29z"/>
<path d="M3155 5750 c-3 -5 -1 -17 4 -27 5 -10 12 -26 15 -35 9 -29 34 -21 41
14 6 24 3 35 -11 45 -21 15 -40 17 -49 3z"/>
<path d="M5715 5726 c-19 -14 -19 -15 -1 -35 11 -12 25 -21 33 -21 14 0 83
-61 83 -74 0 -3 -7 -6 -15 -6 -8 0 -21 -14 -30 -30 -15 -30 -17 -30 -84 -28
-38 2 -67 6 -64 11 2 4 -5 7 -16 7 -11 0 -23 5 -26 10 -4 6 -13 2 -23 -10 -11
-14 -23 -19 -35 -14 -14 5 -15 9 -6 20 6 8 18 14 26 14 13 0 13 3 3 15 -9 10
-24 13 -56 8 -27 -3 -44 -2 -44 4 0 6 -11 8 -25 5 -20 -3 -24 -9 -19 -27 4
-18 -1 -28 -21 -41 -36 -23 -138 -24 -182 -1 -42 22 -64 21 -108 -4 -31 -18
-50 -21 -148 -20 -61 1 -119 1 -127 0 -8 0 -55 -2 -104 -3 -88 -1 -90 -1 -128
33 -21 18 -38 37 -38 41 0 4 13 10 28 13 39 8 77 40 69 60 -3 9 -23 20 -44 26
-34 10 -40 8 -63 -14 -14 -14 -30 -25 -34 -25 -4 0 -19 -9 -33 -20 -14 -11
-28 -18 -32 -15 -4 2 -15 -9 -24 -25 -15 -24 -25 -29 -78 -35 -37 -4 -63 -12
-66 -21 -3 -8 -11 -14 -18 -14 -8 0 -18 -23 -26 -57 -7 -32 -17 -62 -22 -68
-6 -6 -7 0 -3 17 4 16 0 42 -8 63 -15 34 -16 35 -71 35 l-56 0 23 -22 c13 -13
16 -17 7 -9 -10 7 -21 11 -26 10 -4 -2 12 -22 36 -44 26 -23 42 -33 38 -22
-11 30 9 10 23 -23 7 -16 16 -27 21 -24 5 3 9 0 9 -6 0 -6 4 -9 9 -6 5 3 12
-1 15 -10 6 -15 38 -16 364 -10 196 4 391 9 432 11 41 2 192 7 335 10 143 3
344 8 448 11 l187 7 0 76 0 76 -48 15 c-39 13 -48 20 -50 42 -2 19 3 30 17 37
13 7 18 17 14 27 -6 17 -83 54 -112 54 -9 0 -24 9 -34 20 -20 23 -46 26 -72 6z
m175 -117 c0 -11 -4 -17 -10 -14 -5 3 -10 15 -10 26 0 11 5 17 10 14 6 -3 10
-15 10 -26z"/>
<path d="M4260 5672 c1 -20 39 -55 54 -49 13 5 24 37 13 37 -1 0 -17 4 -35 9
-17 5 -32 7 -32 3z"/>
<path d="M2683 5558 c-22 -46 -23 -57 -5 -51 15 6 15 5 3 -10 -7 -9 -14 -32
-15 -52 -1 -35 -1 -35 42 -35 30 0 41 4 36 11 -5 8 0 10 17 6 22 -6 24 -3 27
39 2 24 -1 50 -5 57 -4 6 -8 18 -10 26 -5 36 -74 43 -90 9z"/>
<path d="M3190 5511 c-9 -17 -63 -35 -110 -36 -8 0 -35 -9 -58 -19 -30 -13
-39 -22 -30 -28 9 -5 3 -8 -17 -9 -16 0 -39 -4 -49 -8 -18 -7 -18 -8 5 -14 35
-10 84 -8 114 3 18 7 33 7 45 0 15 -8 24 -5 40 12 12 13 21 19 20 13 -9 -42
-1 -48 60 -43 55 4 60 3 60 -16 0 -20 0 -20 15 0 16 21 21 69 6 59 -6 -3 -13
14 -16 39 -5 33 -13 46 -31 55 -34 15 -42 14 -54 -8z m47 -97 c-3 -3 -12 -4
-19 -1 -8 3 -5 6 6 6 11 1 17 -2 13 -5z m50 -26 c-3 -8 -6 -5 -6 6 -1 11 2 17
5 13 3 -3 4 -12 1 -19z"/>
<path d="M4214 5496 c-3 -8 -1 -23 5 -33 9 -15 10 -13 11 15 0 34 -7 42 -16
18z"/>
<path d="M3928 5493 c7 -3 16 -2 19 1 4 3 -2 6 -13 5 -11 0 -14 -3 -6 -6z"/>
<path d="M2441 5474 c0 -11 3 -14 6 -6 3 7 2 16 -1 19 -3 4 -6 -2 -5 -13z"/>
<path d="M3994 5459 c3 -17 6 -40 6 -51 0 -14 5 -18 15 -14 8 3 15 1 15 -4 0
-6 -4 -10 -10 -10 -18 0 -10 -29 10 -40 25 -14 60 -4 60 16 0 8 -4 12 -10 9
-5 -3 -10 -1 -10 6 0 14 -38 49 -54 49 -6 0 -3 5 7 11 20 12 52 4 43 -10 -9
-14 22 -34 57 -38 l31 -3 -33 34 c-18 19 -56 44 -83 55 l-50 21 6 -31z"/>
<path d="M3947 5473 c-3 -5 -1 -15 5 -23 8 -12 9 -11 4 5 l-6 20 16 -20 c15
-19 16 -19 12 -1 -3 21 -23 32 -31 19z"/>
<path d="M50 5420 c0 -25 21 -80 30 -80 4 0 10 6 13 14 3 8 16 16 29 18 13 2
23 10 23 18 0 8 4 20 7 26 8 12 3 13 -59 18 -35 2 -43 0 -43 -14z"/>
<path d="M183 5416 c5 -15 24 -18 24 -3 0 8 -6 14 -14 14 -7 0 -12 -5 -10 -11z"/>
<path d="M14 5413 c-9 -3 -7 -13 4 -36 15 -29 17 -30 20 -10 4 27 -9 52 -24
46z"/>
<path d="M449 5388 c-1 -7 0 -21 1 -31 1 -10 -4 -24 -10 -32 -18 -22 2 -26 69
-16 3 1 -4 8 -15 16 -11 8 -14 15 -6 15 6 0 12 12 12 26 0 14 -4 23 -10 19 -6
-4 -7 -11 -4 -17 4 -7 2 -8 -4 -4 -6 4 -9 13 -5 21 3 9 -1 15 -11 15 -9 0 -17
-6 -17 -12z"/>
<path d="M2579 5385 c-123 -25 -209 -54 -203 -70 4 -8 10 -15 15 -15 5 0 9 -7
9 -15 0 -8 5 -15 10 -15 6 0 1 -9 -10 -20 -11 -11 -26 -17 -35 -14 -10 4 -15
0 -16 -12 0 -27 -127 -462 -128 -441 -1 9 -4 17 -8 17 -14 0 -113 -116 -119
-140 -4 -14 -32 -58 -63 -98 -93 -121 -123 -165 -112 -158 15 10 13 -5 -4 -28
-30 -40 -14 -33 32 12 43 44 45 45 25 12 -12 -19 -36 -64 -53 -100 -17 -36
-37 -78 -45 -93 -8 -16 -11 -33 -8 -38 3 -5 0 -8 -6 -7 -7 2 -16 -7 -21 -20
-6 -15 -5 -21 1 -17 6 3 10 0 10 -7 0 -7 9 5 21 27 34 65 41 64 13 -3 -25 -56
-44 -79 -44 -51 0 5 -4 7 -10 4 -5 -3 -10 -11 -10 -16 0 -6 5 -7 10 -4 13 8
13 -5 0 -25 -9 -13 -10 -13 -10 0 -1 9 -6 5 -15 -10 -16 -29 -19 -44 -6 -36 4
3 5 -9 2 -27 -4 -17 -13 -32 -20 -32 -10 0 -40 -60 -41 -83 0 -1 -5 -1 -12 0
-6 2 -22 -26 -35 -62 -23 -63 -53 -112 -38 -61 15 48 -14 10 -31 -42 -9 -28
-19 -46 -21 -40 -6 17 -22 0 -46 -47 l-17 -35 3 33 c5 49 -10 49 -18 0 -10
-62 -24 -82 -26 -38 -1 33 -2 32 -13 -15 -8 -30 -15 -44 -18 -35 -5 11 -7 10
-7 -5 -2 -34 -21 -95 -31 -95 -5 0 -7 7 -4 15 14 34 -14 11 -45 -37 -18 -29
-47 -75 -64 -102 -18 -27 -45 -70 -60 -95 -16 -25 -36 -52 -46 -61 -9 -8 -15
-26 -13 -40 2 -22 1 -23 -11 -9 -11 15 -19 9 -70 -51 -61 -73 -167 -224 -167
-240 0 -5 -5 -12 -12 -16 -8 -5 -9 -2 -5 10 4 9 3 15 -1 12 -7 -4 -8 -52 -3
-116 2 -21 5 -19 20 18 9 23 20 40 23 36 4 -3 16 8 26 26 22 35 36 26 26 -15
-4 -18 1 -40 16 -71 25 -47 36 -55 42 -27 2 14 8 10 23 -14 20 -31 134 -113
157 -113 6 0 9 -3 6 -6 -8 -7 -89 16 -108 31 -25 20 -40 27 -40 18 0 -12 83
-60 119 -68 17 -3 31 -11 31 -16 0 -11 2 -11 -38 0 -20 6 -30 6 -27 0 4 -5
-14 -9 -39 -9 -25 0 -46 -4 -46 -10 0 -9 23 -13 65 -13 6 0 19 -9 30 -20 20
-20 20 -20 -2 -14 -18 4 -23 1 -23 -13 0 -11 -4 -22 -10 -25 -5 -3 -10 -21 -9
-38 0 -29 1 -30 10 -11 6 11 22 28 37 37 20 12 23 17 10 17 -29 0 -20 18 12
25 17 4 28 11 24 16 -7 12 84 11 146 -2 27 -6 48 -15 44 -20 -3 -5 6 -9 21 -9
18 0 32 -11 53 -41 15 -22 40 -55 55 -72 24 -28 27 -28 16 -7 -7 14 -23 40
-37 58 -14 18 -23 35 -20 38 3 2 17 -11 32 -31 25 -33 62 -49 54 -23 -2 6 4
20 14 30 10 10 16 24 12 30 -5 7 -3 8 6 3 10 -6 12 -4 6 11 -4 10 -4 15 0 11
5 -4 18 9 31 30 13 21 23 33 23 28 0 -6 -6 -19 -13 -30 -39 -58 -105 -293 -91
-328 3 -8 1 -18 -5 -22 -6 -3 -11 -15 -11 -25 0 -10 -9 -22 -21 -25 -12 -4
-18 -12 -15 -21 3 -8 1 -14 -5 -14 -6 0 -8 -8 -5 -17 7 -22 -2 -36 -31 -52
-18 -9 -22 -19 -21 -59 1 -50 -22 -106 -53 -129 -9 -7 -19 -30 -23 -51 -8 -52
-28 -69 -60 -52 -13 7 -29 9 -35 6 -6 -4 -11 1 -11 11 0 11 -6 27 -13 37 -11
16 -12 8 -4 -48 10 -65 10 -67 -17 -95 -15 -16 -33 -52 -42 -83 -16 -63 -43
-132 -49 -126 -3 2 0 20 6 39 8 25 7 44 -3 73 -17 51 -30 54 -51 14 -9 -18
-26 -49 -37 -68 l-20 -35 0 40 c0 72 -13 75 -69 16 -47 -49 -63 -86 -45 -104
4 -4 20 14 36 38 38 57 48 63 48 28 0 -36 -47 -136 -59 -128 -5 3 -11 -9 -13
-27 -3 -26 -6 -18 -13 32 -9 61 -12 65 -37 68 -22 3 -27 0 -22 -13 6 -13 9
-14 16 -3 8 10 9 10 6 -1 -7 -24 -24 -23 -35 3 -9 19 -17 22 -38 18 -35 -6
-109 -76 -102 -96 3 -8 0 -19 -7 -25 -17 -15 -24 10 -21 73 1 26 -2 46 -8 46
-6 0 -8 3 -4 6 3 4 0 13 -8 21 -18 18 -19 33 -3 33 6 0 4 6 -6 13 -10 7 -17
20 -15 28 1 7 -1 22 -6 33 -5 12 -3 21 6 27 11 7 11 11 -4 21 -10 8 -19 20
-20 28 -2 8 -11 47 -22 87 l-18 71 -44 -3 c-24 -1 -49 -7 -56 -13 -8 -7 -18
-7 -27 -2 -23 15 -57 12 -64 -5 -6 -16 -36 -21 -36 -7 0 10 -36 9 -46 -1 -8
-8 -57 3 -64 14 -8 12 -83 17 -109 7 -17 -6 -31 -4 -48 7 -13 9 -28 13 -33 10
-6 -3 -10 -2 -10 4 0 7 -10 6 -30 0 -16 -6 -30 -15 -30 -20 0 -5 -5 -9 -11 -9
-5 0 -8 4 -4 9 3 5 1 12 -5 16 -6 4 -10 -28 -10 -93 l0 -99 73 -26 c100 -35
132 -44 206 -57 35 -6 74 -18 86 -26 13 -8 39 -51 58 -97 20 -45 60 -138 90
-207 65 -151 110 -282 105 -311 -3 -21 -34 -37 -122 -61 -47 -13 -57 -3 -81
80 -9 30 -36 103 -60 161 -24 60 -48 141 -56 186 -14 90 -30 119 -53 95 -12
-13 -12 -24 4 -80 9 -36 32 -96 50 -135 18 -38 45 -121 61 -184 31 -124 29
-133 -26 -139 -16 -2 -39 -9 -51 -17 -12 -7 -37 -16 -56 -20 -32 -6 -36 -4
-46 22 -58 156 -159 393 -173 408 -5 5 -9 -4 -9 -25 0 -19 14 -59 34 -94 37
-66 96 -225 96 -258 0 -18 -2 -19 -17 -7 -15 12 -16 12 -10 -3 4 -12 1 -18 -8
-18 -9 0 -33 -6 -55 -12 l-40 -13 0 -337 0 -338 1340 0 1340 0 -5 73 c-3 39
-7 98 -9 130 -1 31 -6 60 -9 64 -4 3 -7 28 -7 54 0 50 -20 151 -46 231 -9 26
-14 56 -12 65 6 25 53 -126 74 -233 9 -49 18 -118 18 -154 1 -36 3 -102 4
-147 l2 -83 94 0 c82 0 95 2 99 18 4 16 5 16 6 0 1 -16 14 -18 139 -17 75 0
132 3 125 5 -8 4 -6 11 7 24 12 12 17 27 14 37 -5 16 -4 16 10 -1 19 -24 20
-38 4 -54 -9 -9 1 -12 45 -12 60 0 68 5 40 25 -11 8 -14 18 -9 31 8 18 9 18
17 -3 9 -24 24 -30 34 -13 3 6 2 10 -3 10 -15 0 -9 40 8 51 13 10 13 10 0 6
-24 -7 -19 81 6 102 13 11 18 26 16 48 -3 25 2 35 22 49 18 11 26 25 26 44 0
15 7 33 15 40 8 7 15 17 15 22 0 5 7 16 15 24 20 21 19 36 -5 62 -11 12 -20
26 -20 32 0 5 -5 10 -11 10 -5 0 -8 4 -4 9 3 5 -4 12 -15 16 -11 4 -18 10 -15
15 3 4 -2 11 -11 14 -13 5 -14 9 -4 21 10 13 10 19 -4 33 -17 20 -22 37 -7 28
14 -9 34 22 28 44 -6 24 2 25 29 5 10 -8 24 -14 29 -14 6 0 -7 10 -27 22 -33
21 -35 24 -20 36 9 6 18 24 18 39 1 15 -1 21 -3 15 -7 -20 -23 -15 -23 6 0 14
5 18 20 14 11 -3 20 0 20 6 0 6 -4 11 -8 11 -4 0 -8 9 -8 20 0 11 6 20 13 20
7 0 13 4 13 9 0 5 21 12 46 16 37 5 43 9 34 20 -6 8 -19 11 -27 8 -10 -4 -14
-2 -9 5 8 13 -13 28 -23 16 -15 -21 -41 -11 -50 20 -5 17 -10 23 -10 14 -1
-10 -8 -18 -17 -18 -9 0 -12 -5 -8 -12 5 -7 3 -8 -5 -4 -7 5 -10 15 -7 23 8
20 -11 53 -32 53 -15 1 -15 2 2 15 17 13 17 15 3 21 -13 5 -15 15 -10 52 6 42
5 46 -9 34 -13 -10 -17 -10 -22 4 -10 26 -7 34 14 34 11 0 20 5 20 10 0 6 -7
10 -16 10 -11 0 -14 6 -9 20 5 14 2 20 -9 20 -11 0 -16 9 -16 31 0 19 4 28 11
23 8 -5 8 -1 0 14 -13 25 -14 35 -2 27 5 -3 13 0 17 6 4 7 3 9 -4 5 -7 -4 -15
8 -21 31 -14 50 -14 56 4 49 8 -3 15 -2 15 3 0 5 11 12 25 15 14 4 25 11 25
16 0 6 7 6 18 -1 21 -13 98 11 95 29 -2 7 4 12 12 12 11 0 14 7 9 25 -5 19 -2
25 11 25 12 0 15 5 10 20 -4 12 -1 27 5 35 10 12 10 15 -1 15 -7 0 -3 7 9 16
12 8 21 23 20 32 -2 11 4 17 19 17 12 0 25 3 29 7 4 5 -1 8 -11 8 -13 0 -15 3
-6 14 17 20 10 69 -13 88 -19 15 -19 18 -5 35 9 10 14 24 12 30 -3 7 3 20 11
29 19 19 21 44 4 44 -10 0 -9 3 1 9 7 5 11 13 7 19 -3 6 -2 13 4 17 6 4 8 10
5 15 -3 5 -1 11 4 14 5 3 7 15 4 26 -3 11 -1 20 4 20 9 0 17 75 15 150 0 19 4
51 9 71 5 20 6 47 1 58 l-8 22 -26 -20 c-29 -23 -78 -44 -78 -33 1 15 27 40
60 57 59 31 89 57 122 108 17 26 43 54 58 62 36 18 128 124 185 211 44 67 54
94 36 94 -5 0 3 12 17 27 39 40 113 280 114 370 1 75 -12 122 -35 130 -12 4
-26 6 -30 5 -4 -1 -10 4 -13 12 -3 8 -11 13 -18 10 -7 -3 -22 4 -35 15 -22 19
-23 19 -43 -1 l-21 -21 -10 24 c-5 14 -11 19 -14 12 -7 -19 -21 -16 -19 5 1
11 -7 18 -25 20 -16 2 -46 24 -78 58 -28 29 -57 54 -65 54 -7 0 -21 10 -32 21
l-19 21 70 -7 c74 -7 233 9 250 26 5 5 18 9 28 9 16 0 17 3 7 15 -10 12 -10
15 4 15 9 0 16 4 16 10 0 5 18 13 40 16 39 6 47 24 11 24 -10 0 -26 10 -37 21
l-19 22 32 -17 c21 -10 34 -12 38 -6 9 14 -4 108 -16 116 -5 3 -9 16 -9 29 0
13 -6 30 -13 37 -8 6 -12 21 -10 32 4 22 -35 55 -46 39 -8 -11 -41 -9 -66 4
-11 6 -51 9 -89 8 -49 -2 -74 1 -83 11 -8 8 -12 18 -9 22 3 5 -8 8 -24 7 -17
-1 -30 2 -30 7 0 4 23 8 51 8 31 0 56 6 65 15 14 13 13 15 -5 15 -12 0 -21 5
-21 12 0 6 -9 3 -20 -7 -26 -23 -105 -24 -121 -1 -4 4 -15 -6 -25 -23 -21 -36
-29 -38 -43 -13 -6 9 -11 13 -11 8 0 -5 -7 -3 -15 4 -13 10 -15 9 -16 -11 0
-20 -2 -22 -11 -8 -9 14 -13 13 -34 -8 -13 -13 -24 -28 -24 -34 0 -5 -16 8
-37 28 -27 28 -37 34 -40 23 -12 -41 -13 -42 -27 -31 -10 9 -25 7 -59 -8 -33
-14 -67 -20 -119 -19 -88 1 -196 -8 -222 -18 -12 -5 -17 -4 -13 3 6 10 -14 9
-73 -3 l-25 -6 25 -13 c22 -12 23 -14 8 -20 -33 -13 -18 -22 27 -18 35 4 45 2
45 -9 0 -23 -34 -49 -66 -51 -29 -2 -39 -7 -73 -38 -10 -8 -25 -19 -35 -22 -9
-4 -14 -12 -11 -18 10 -15 -24 -49 -48 -49 -11 0 -18 -3 -14 -6 3 -3 55 -7
116 -9 80 -2 116 -7 133 -19 22 -16 22 -16 -20 -16 -24 0 -41 -4 -38 -9 4 -5
0 -12 -6 -14 -7 -3 -1 -6 15 -6 15 -1 27 -5 27 -10 0 -5 12 -11 28 -14 67 -13
144 -36 157 -47 9 -7 15 -8 20 0 3 5 19 10 34 10 33 0 90 18 111 35 8 7 27 15
43 19 19 4 27 13 27 27 0 36 31 89 51 89 11 0 27 8 37 18 21 21 75 28 89 10 6
-7 16 -44 22 -83 14 -81 52 -204 65 -213 5 -3 7 2 3 10 -8 22 2 29 24 17 15
-7 19 -6 19 6 0 8 6 15 14 15 17 0 76 -32 76 -41 0 -8 -68 -22 -78 -15 -16 10
-10 -59 8 -95 11 -21 20 -45 20 -53 0 -17 -74 -41 -91 -30 -6 3 -31 -2 -55
-11 -25 -9 -58 -15 -72 -12 -15 3 -38 -1 -52 -8 -14 -8 -48 -14 -77 -15 -64 0
-83 21 -83 92 0 41 -3 48 -20 48 -11 0 -20 5 -20 11 0 6 -9 9 -20 6 -11 -3
-20 -1 -20 4 0 5 5 9 10 9 6 0 10 5 10 11 0 6 -7 9 -14 6 -10 -4 -13 -1 -9 9
3 9 -1 14 -12 14 -10 0 -14 -5 -10 -12 4 -7 -3 -2 -14 11 -12 13 -21 18 -21
12 0 -6 -14 -11 -31 -11 -17 0 -28 -4 -24 -10 3 -5 -1 -10 -9 -10 -9 0 -15 -3
-15 -7 3 -21 -3 -33 -17 -33 -10 0 -14 -6 -10 -15 4 -11 -1 -15 -17 -15 -34 0
-48 -14 -49 -48 -1 -34 -22 -54 -69 -65 -15 -4 -36 -21 -47 -38 -10 -17 -22
-31 -25 -31 -18 0 -47 -11 -47 -18 0 -5 -6 -15 -12 -22 -12 -12 -38 -75 -38
-92 0 -4 8 -5 19 -1 13 4 23 -2 35 -20 9 -14 21 -25 27 -25 6 0 28 -13 49 -30
21 -17 43 -30 50 -30 13 0 9 -107 -5 -142 -4 -10 -3 -18 2 -18 5 0 9 -12 8
-26 0 -15 8 -31 17 -37 13 -9 21 -7 36 11 11 12 26 22 35 22 8 0 18 10 22 23
7 20 8 19 12 -10 3 -21 12 -37 26 -44 12 -7 25 -17 29 -23 5 -6 8 -2 8 11 0
12 -4 25 -10 28 -6 4 -6 12 1 24 9 13 8 25 -5 49 -21 40 -20 51 2 48 9 -2 23
-15 30 -30 7 -14 30 -37 50 -50 20 -13 45 -37 55 -54 17 -30 17 -31 -2 -37
-10 -3 -21 -15 -24 -25 -4 -17 0 -20 27 -20 40 0 102 -20 88 -29 -6 -3 52 -7
128 -8 76 0 146 -5 155 -10 31 -18 75 -2 98 33 32 49 44 44 52 -21 4 -30 -1
-40 -31 -72 -32 -33 -40 -36 -87 -35 -72 1 -107 6 -107 14 0 12 -81 0 -99 -14
-9 -8 -28 -19 -43 -26 -16 -6 -28 -16 -28 -21 0 -12 -8 -13 -142 -12 -86 0
-114 4 -145 20 -51 26 -83 57 -83 81 0 26 -17 34 -37 18 -15 -11 -16 -11 -10
5 4 10 1 18 -6 19 -7 0 -16 2 -22 3 -5 2 -16 3 -24 4 -8 0 -12 4 -8 7 3 3 2
17 -3 30 -6 15 -6 26 1 30 6 3 3 11 -8 20 -17 12 -16 13 7 14 l25 1 -29 15
c-21 12 -31 13 -40 4 -8 -8 -7 -13 4 -21 11 -8 9 -9 -10 -3 -22 6 -23 5 -11
-10 12 -15 11 -15 -21 -2 -19 8 -45 12 -57 9 -16 -4 -27 1 -37 16 -8 11 -24
21 -35 21 -11 0 -36 16 -56 35 -20 19 -39 35 -43 35 -7 0 -18 30 -18 47 0 3
-5 9 -10 12 -16 11 -42 69 -42 96 0 14 -5 25 -11 25 -5 0 -7 5 -4 10 4 6 2 16
-3 23 -5 7 -17 39 -26 72 -25 89 -47 143 -62 156 -12 9 -13 6 -8 -17 12 -64
-35 -112 -97 -99 -37 8 -103 71 -95 91 3 9 -2 23 -11 32 -16 16 -15 17 10 20
36 4 34 23 -5 43 -47 23 -68 57 -70 114 -2 61 13 215 21 216 3 0 18 3 32 5 23
4 29 0 38 -28 11 -30 10 -35 -16 -59 -54 -50 -64 -92 -43 -171 8 -27 18 -39
42 -47 42 -15 43 -15 24 14 -18 28 -20 58 -6 86 10 18 13 18 34 4 23 -15 24
-15 30 12 14 61 28 83 52 83 28 0 33 8 39 57 2 21 7 49 11 63 4 14 7 45 6 70
-1 25 -2 59 -2 75 0 17 6 46 13 65 8 19 12 41 10 47 -2 7 3 23 11 35 19 27 21
52 4 42 -7 -4 -5 2 5 13 9 11 17 26 17 34 0 8 6 21 12 27 10 10 10 15 -1 21
-8 5 -11 16 -8 25 4 9 2 16 -4 16 -6 0 -7 6 -2 13 11 17 4 58 -14 75 -8 8 -12
21 -9 28 3 8 -1 14 -11 14 -14 0 -14 2 2 20 10 11 24 20 32 20 7 0 16 8 20 18
3 9 13 25 21 35 13 14 13 17 1 17 -8 0 -1 11 16 25 l30 24 -35 2 c-26 1 -29 3
-11 6 21 4 113 63 98 63 -3 0 -42 -16 -87 -35 -44 -19 -84 -34 -88 -34 -15 2
-52 -14 -52 -22 0 -5 -21 -9 -47 -8 l-48 1 58 18 c32 10 64 24 72 30 10 8 15
9 15 2 0 -14 32 -3 46 16 6 9 20 16 31 17 11 0 53 18 94 38 93 47 108 57 133
84 12 12 59 41 106 65 47 23 87 46 88 50 2 4 12 8 21 8 10 0 21 3 25 7 4 4 13
8 19 8 7 1 39 9 72 20 33 10 64 18 69 17 23 -7 82 -6 93 1 7 4 21 4 30 -1 16
-8 39 -9 78 -3 6 1 -1 8 -15 16 l-25 15 29 -6 c25 -6 28 -4 23 10 -7 19 4 15
36 -12 15 -14 17 -13 17 1 0 24 7 21 46 -15 21 -20 46 -33 62 -34 15 0 37 -4
50 -8 15 -5 22 -3 22 6 0 20 99 22 160 4 54 -16 124 -51 152 -76 9 -8 35 -26
57 -40 22 -14 43 -33 47 -43 8 -26 115 -138 125 -132 4 3 10 1 14 -5 3 -5 1
-10 -5 -10 -17 0 -3 -53 17 -64 13 -7 13 -10 2 -17 -11 -7 -10 -9 4 -9 18 0
23 15 8 24 -14 9 -20 45 -9 53 6 3 8 2 5 -4 -3 -5 0 -10 8 -10 18 0 -10 43
-37 58 -11 6 -17 13 -14 16 3 3 -2 12 -12 19 -14 10 -15 15 -4 26 10 10 8 16
-10 30 l-23 17 25 -6 c24 -6 24 -5 8 13 -12 13 -14 24 -8 34 17 26 11 37 -25
52 -35 14 -35 14 -17 34 16 16 17 22 5 32 -8 8 -13 9 -13 2 0 -7 -5 -6 -14 2
-13 11 -13 14 0 24 11 9 8 13 -18 20 -25 7 -33 15 -33 33 0 20 -10 28 -59 46
-42 16 -54 24 -42 28 10 4 14 11 11 17 -3 5 -1 10 4 10 6 0 11 5 11 10 0 6 -9
10 -19 10 -11 0 -23 5 -26 10 -4 6 -11 8 -16 5 -5 -4 -9 1 -9 9 0 9 -9 16 -20
16 -11 0 -20 4 -20 9 0 5 28 10 62 10 53 0 66 4 81 22 20 25 15 38 -8 19 -15
-12 -107 -15 -161 -5 -10 2 -28 4 -39 5 -19 1 -19 1 -2 11 19 11 16 16 -37 57
-36 27 -13 29 37 2 20 -11 37 -17 37 -14 0 3 12 -4 26 -15 l26 -20 39 19 c41
21 52 33 22 24 -17 -5 -17 -5 0 9 13 11 14 16 5 24 -26 20 -83 37 -147 44
l-66 8 77 -4 c44 -2 92 -10 109 -19 18 -9 38 -16 46 -16 8 0 11 -4 8 -10 -9
-15 29 -12 51 4 19 14 19 15 -3 35 -12 12 -30 21 -39 21 -9 0 -41 16 -71 36
-47 31 -124 54 -190 57 -7 0 -15 7 -18 15 -5 12 3 14 47 9 41 -5 49 -4 34 5
-27 15 -161 3 -233 -21 -34 -12 -51 -14 -40 -6 10 7 14 15 10 18 -13 8 -88
-38 -86 -51 2 -8 -5 -9 -23 -1 -43 16 -39 3 8 -25 24 -14 37 -26 30 -26 -18 0
10 -52 41 -77 33 -26 46 -48 19 -34 -18 9 -19 8 -14 -12 3 -12 10 -25 16 -30
7 -4 3 -9 -11 -13 -14 -4 -20 -11 -16 -22 4 -14 3 -15 -6 -2 -5 8 -13 33 -17
55 -6 41 -23 81 -24 58 0 -7 -5 -13 -11 -13 -6 0 -9 6 -6 14 3 8 -2 25 -12 38
-10 13 -21 32 -25 42 -6 19 -7 19 -21 0 -10 -14 -13 -46 -10 -124 1 -58 6
-116 9 -130 4 -14 -1 -7 -10 15 -9 22 -18 82 -21 133 -7 108 -23 124 -23 21 0
-44 -4 -68 -10 -64 -13 8 -13 106 0 140 9 23 8 26 -5 21 -19 -7 -47 3 -39 16
3 5 11 4 20 -3 15 -12 16 -10 18 31 1 20 7 26 29 28 30 4 38 22 8 22 -10 0
-31 -12 -47 -28 l-29 -27 -70 32 c-38 17 -86 34 -105 37 l-35 6 30 -11 c92
-32 134 -52 139 -64 3 -10 0 -12 -12 -8 -13 5 -12 1 6 -22 12 -15 21 -30 19
-31 -2 -2 -35 9 -73 25 -135 58 -231 83 -318 83 -55 1 -75 3 -61 10 13 5 4 7
-30 3 -35 -3 -45 -2 -34 5 10 6 55 14 100 19 79 8 81 8 24 9 -33 0 -90 -6
-126 -13z m-20 -29 c-10 -9 -69 -36 -69 -32 0 7 52 35 64 36 5 0 7 -2 5 -4z
m961 -26 c0 -11 -2 -20 -4 -20 -2 0 -6 9 -9 20 -3 11 -1 20 4 20 5 0 9 -9 9
-20z m-1070 -61 c0 -6 -4 -7 -10 -4 -5 3 -10 11 -10 16 0 6 5 7 10 4 6 -3 10
-11 10 -16z m910 -27 c0 -15 -2 -15 -10 -2 -13 20 -13 33 0 25 6 -3 10 -14 10
-23z m40 -13 c0 -5 -5 -7 -12 -3 -8 5 -9 1 -4 -12 5 -14 4 -16 -5 -7 -6 6 -8
16 -5 22 9 14 26 14 26 0z m-895 -49 c88 -81 146 -107 270 -119 l80 -8 -80 -2
c-44 0 -96 3 -114 9 -46 13 -26 -4 22 -20 21 -7 37 -14 34 -16 -2 -2 -30 5
-63 17 -46 16 -74 19 -128 15 -73 -5 -102 -20 -200 -103 -22 -18 -41 -32 -42
-30 -1 1 13 58 33 127 35 128 52 160 84 160 10 0 20 4 24 10 9 14 36 1 80 -40z
m1040 20 l40 -19 -47 2 c-35 2 -48 6 -52 20 -5 22 9 21 59 -3z m-58 -82 c-3
-8 -6 -5 -6 6 -1 11 2 17 5 13 3 -3 4 -12 1 -19z m-4 -20 c23 -11 64 -23 91
-25 26 -2 56 -8 65 -14 11 -7 -11 -9 -76 -6 -58 2 -94 -1 -97 -8 -2 -5 -5 -2
-5 7 -1 12 -8 17 -22 15 -12 -1 -24 4 -27 12 -3 8 0 11 7 7 15 -9 14 7 -1 22
-20 20 18 15 65 -10z m-209 -93 c7 -6 22 -29 33 -52 18 -36 18 -40 4 -31 -31
19 -61 85 -59 130 l1 43 4 -40 c2 -22 10 -45 17 -50z m70 9 c9 -70 -6 -76 -25
-9 -10 32 -16 62 -13 67 11 18 32 -14 38 -58z m346 36 c0 -5 -8 -10 -17 -10
-15 0 -16 2 -3 10 19 12 20 12 20 0z m-819 -44 c41 -13 86 -22 100 -19 16 3
42 -3 65 -16 66 -35 68 -38 24 -39 -24 -1 -39 2 -35 8 3 5 13 6 23 3 9 -3 14
-3 10 2 -12 12 -59 15 -51 3 4 -7 -1 -9 -13 -5 -27 8 -198 78 -203 83 -8 8 7
4 80 -20z m210 -23 c13 -15 12 -15 -8 -4 -24 12 -29 21 -14 21 5 0 15 -7 22
-17z m-156 -31 c-3 -3 -11 0 -18 7 -9 10 -8 11 6 5 10 -3 15 -9 12 -12z m-329
-1 c-4 -5 0 -11 6 -14 7 -2 -5 -10 -27 -17 -22 -7 -68 -31 -103 -53 -70 -44
-91 -45 -40 -2 30 26 31 27 8 21 -38 -10 47 34 105 55 59 22 58 21 51 10z
m-191 -81 c-3 -5 -16 -15 -28 -21 -19 -9 -19 -8 3 10 28 23 34 26 25 11z m215
-14 c0 -8 -16 -20 -35 -27 -19 -7 -35 -17 -35 -21 0 -4 -6 -8 -13 -8 -7 0 -22
-7 -33 -15 -17 -13 -13 -13 31 0 28 8 60 15 73 15 37 0 16 -17 -30 -24 -24 -4
-72 -22 -108 -41 -75 -39 -65 -47 12 -10 51 25 87 34 58 15 -13 -9 -13 -10 0
-10 8 0 -12 -14 -45 -31 -55 -28 -48 -32 19 -12 11 3 16 1 13 -5 -4 -5 -28
-15 -54 -23 -50 -13 -106 -39 -87 -39 6 0 44 9 85 20 41 11 83 19 94 19 11 0
-2 -7 -29 -14 -27 -8 -52 -18 -55 -23 -3 -5 -13 -9 -21 -10 -8 0 -55 -12 -105
-26 -49 -14 -106 -26 -125 -25 l-35 1 38 10 c45 12 149 68 126 68 -8 0 -24 -7
-35 -15 -22 -16 -38 -20 -29 -6 3 5 -1 11 -9 13 -22 5 4 33 104 112 100 80
153 110 182 100 13 -4 18 -2 14 4 -3 6 2 13 11 15 10 3 19 5 21 6 1 0 2 -5 2
-13z m83 -43 c-7 -2 -19 -2 -25 0 -7 3 -2 5 12 5 14 0 19 -2 13 -5z m-116 -79
c-3 -3 -12 -4 -19 -1 -8 3 -5 6 6 6 11 1 17 -2 13 -5z m-17 -44 c13 -8 13 -10
-2 -10 -9 0 -20 5 -23 10 -8 13 5 13 25 0z m-285 -90 c-3 -5 -14 -10 -23 -10
-15 0 -15 2 -2 10 20 13 33 13 25 0z m225 -45 c0 -2 -10 -9 -22 -15 -22 -11
-22 -10 -4 4 21 17 26 19 26 11z m-113 -41 c-3 -3 -12 -4 -19 -1 -8 3 -5 6 6
6 11 1 17 -2 13 -5z m-52 -23 c-4 -3 -29 -11 -56 -17 -40 -9 -47 -9 -38 2 6 7
20 14 32 16 43 6 68 6 62 -1z m-140 -42 c17 -1 16 -2 -5 -9 -23 -6 -22 -8 15
-14 57 -11 64 -14 30 -15 -38 -1 -74 17 -94 49 l-16 24 25 -17 c13 -9 34 -17
45 -18z m1565 -349 c0 -5 -5 -10 -11 -10 -5 0 -7 5 -4 10 3 6 8 10 11 10 2 0
4 -4 4 -10z m-47 -71 c3 -13 1 -19 -6 -16 -15 5 -22 37 -9 37 5 0 12 -9 15
-21z m-268 -168 c3 -5 1 -12 -5 -16 -5 -3 -10 1 -10 9 0 18 6 21 15 7z m-1317
-48 c30 -41 9 -43 -38 -3 -19 16 -41 30 -48 30 -7 0 -10 4 -7 10 8 13 75 -15
93 -37z m-530 -258 c-6 -14 -13 -23 -15 -21 -5 5 15 46 22 46 3 0 -1 -11 -7
-25z m-38 -69 c0 -3 -4 -8 -10 -11 -5 -3 -10 -1 -10 4 0 6 5 11 10 11 6 0 10
-2 10 -4z m1555 -6 c-3 -5 -13 -10 -21 -10 -8 0 -12 5 -9 10 3 6 13 10 21 10
8 0 12 -4 9 -10z m645 -30 c0 -5 -2 -10 -4 -10 -3 0 -8 5 -11 10 -3 6 -1 10 4
10 6 0 11 -4 11 -10z m-2359 -63 c-10 -9 -11 -8 -5 6 3 10 9 15 12 12 3 -3 0
-11 -7 -18z m149 -47 l-7 -55 -2 51 c0 28 2 54 6 57 10 11 10 6 3 -53z m1430
30 c0 -5 -4 -10 -10 -10 -5 0 -10 5 -10 10 0 6 5 10 10 10 6 0 10 -4 10 -10z
m-860 -50 c0 -5 -4 -10 -10 -10 -5 0 -10 5 -10 10 0 6 5 10 10 10 6 0 10 -4
10 -10z m-653 -22 c-3 -8 -6 -5 -6 6 -1 11 2 17 5 13 3 -3 4 -12 1 -19z m-17
-88 c7 -36 14 -89 16 -118 4 -72 21 -122 42 -122 16 -1 16 -1 0 -11 -29 -17
-14 -109 33 -198 21 -41 39 -80 39 -86 0 -7 7 -18 15 -25 8 -7 13 -16 10 -20
-3 -4 4 -19 15 -33 11 -14 20 -32 20 -41 0 -15 12 -21 33 -17 4 1 3 -7 -3 -18
-13 -26 -13 -34 2 -25 7 5 8 2 3 -7 -21 -36 -26 -39 -49 -27 -11 7 -27 11 -33
10 -7 -2 -13 1 -13 7 0 5 -8 7 -19 4 -10 -3 -22 0 -25 6 -4 6 -17 11 -29 11
-28 1 -61 25 -52 39 3 6 2 11 -4 11 -5 0 -17 8 -27 17 -16 17 -17 16 -12 -10
3 -16 1 -27 -6 -27 -14 0 -55 28 -91 62 -16 15 -33 24 -38 21 -5 -3 -4 -9 3
-13 8 -5 3 -7 -13 -7 -15 1 -25 7 -23 12 1 6 -8 23 -21 39 -14 17 -21 35 -18
46 3 10 -2 25 -10 34 -17 17 -16 52 1 49 5 -1 9 39 9 98 0 91 1 101 22 119 13
11 23 15 23 10 0 -6 7 -10 16 -10 12 0 15 8 11 37 -5 33 1 47 51 118 31 44 56
83 55 87 -2 4 6 12 17 18 11 6 20 18 20 27 0 34 17 -4 30 -67z m46 -22 c4 -45
2 -58 -5 -47 -12 19 -30 126 -23 134 11 11 22 -25 28 -87z m195 -21 c-10 -9
-11 -8 -5 6 3 10 9 15 12 12 3 -3 0 -11 -7 -18z m1600 4 c1 -3 3 -23 4 -43 3
-30 0 -38 -13 -38 -9 0 -33 -3 -53 -6 -34 -6 -36 -5 -43 27 -9 44 13 67 64 66
22 0 40 -3 41 -6z m-1757 -131 l6 -35 -15 30 c-8 17 -14 41 -14 55 0 23 1 23
8 5 5 -11 11 -36 15 -55z m1672 -37 c10 -15 15 -16 25 -5 18 17 39 15 61 -5
14 -13 21 -14 30 -5 18 18 52 14 80 -8 18 -14 28 -16 36 -8 6 6 25 12 42 13
24 1 32 -3 36 -21 13 -52 -34 -92 -77 -66 -12 8 -20 8 -24 2 -9 -15 -92 -12
-98 3 -3 9 -16 12 -36 9 -17 -2 -38 1 -45 7 -11 9 -19 9 -34 0 -33 -21 -52 -5
-52 44 0 24 3 47 7 50 12 12 36 7 49 -10z m-86 -14 c0 -5 -4 -9 -10 -9 -5 0
-10 7 -10 16 0 8 5 12 10 9 6 -3 10 -10 10 -16z m-2040 -63 c0 -3 -4 -8 -10
-11 -5 -3 -10 -1 -10 4 0 6 5 11 10 11 6 0 10 -2 10 -4z m468 -109 c5 -7 12
-25 15 -42 5 -21 0 -16 -17 20 -13 28 -27 68 -30 90 -6 38 -5 38 8 -8 8 -26
18 -53 24 -60z m2 83 c0 -5 -4 -10 -10 -10 -5 0 -10 5 -10 10 0 6 5 10 10 10
6 0 10 -4 10 -10z m-497 -36 c-4 -12 -8 -13 -14 -3 -9 15 -2 32 11 24 5 -3 6
-13 3 -21z m557 5 c0 -6 -4 -7 -10 -4 -5 3 -10 11 -10 16 0 6 5 7 10 4 6 -3
10 -11 10 -16z m15 -69 c13 -19 35 -47 49 -62 14 -15 22 -30 17 -33 -6 -3 -19
5 -30 17 -22 23 -25 21 -15 -6 3 -9 12 -16 19 -16 8 0 17 -5 21 -12 4 -7 3 -8
-4 -4 -15 9 -16 -18 -1 -45 6 -11 8 -25 6 -32 -2 -7 -13 7 -25 30 -12 22 -26
43 -32 45 -5 1 -15 30 -21 63 -6 33 -18 73 -26 90 -15 29 -15 29 2 15 10 -8
28 -31 40 -50z m-578 14 c2 -6 -3 -11 -12 -11 -8 0 -15 7 -15 15 0 15 22 12
27 -4z m3 -28 c0 -3 -4 -8 -10 -11 -5 -3 -10 -1 -10 4 0 6 5 11 10 11 6 0 10
-2 10 -4z m-21 -70 c-9 -8 -10 -7 -5 7 3 10 7 24 7 30 1 7 3 4 6 -7 3 -10 -1
-23 -8 -30z m1521 -1 c0 -9 7 -18 15 -21 8 -4 15 -12 15 -19 0 -6 9 -20 20
-30 11 -10 20 -24 20 -32 0 -7 7 -16 15 -19 8 -4 15 -15 15 -26 0 -12 11 -30
24 -42 14 -11 26 -28 28 -36 2 -8 16 -34 31 -57 15 -24 25 -43 21 -43 -3 0 1
-12 11 -26 9 -14 14 -35 11 -47 -3 -11 0 -29 5 -40 9 -16 8 -18 -10 -12 -16 5
-20 3 -15 -9 3 -8 14 -18 25 -21 10 -4 42 -25 70 -47 44 -34 51 -37 46 -19 -3
14 -1 21 10 21 8 0 11 -4 8 -10 -3 -5 1 -11 9 -11 9 -1 21 -3 26 -4 6 -1 18
-3 27 -4 9 0 13 -4 10 -8 -9 -8 29 -35 68 -48 16 -6 29 -17 27 -24 -2 -8 3
-11 13 -8 10 4 15 1 15 -11 0 -18 -41 -41 -74 -43 -12 0 -15 -3 -8 -6 10 -4 8
-9 -8 -20 -13 -9 -19 -21 -15 -33 4 -12 -4 -25 -24 -41 -16 -13 -27 -27 -25
-31 9 -14 -4 -9 -21 8 -11 11 -20 13 -26 7 -7 -7 0 -17 21 -30 27 -17 29 -21
16 -32 -16 -14 -36 -7 -35 12 0 9 2 9 6 0 6 -16 23 -17 23 -3 0 16 -31 24 -39
11 -18 -28 -118 -5 -151 34 -7 8 -18 15 -25 15 -7 0 -16 7 -19 16 -9 23 -7 36
3 29 5 -3 12 -1 16 5 3 5 3 10 -2 10 -15 0 -41 59 -36 79 3 12 9 21 13 21 5 0
6 9 3 20 -3 11 -12 20 -20 20 -8 0 -11 5 -8 10 3 6 2 10 -4 10 -5 0 -11 -3
-14 -7 -2 -5 -2 -2 0 6 2 8 -4 22 -13 32 -9 10 -13 23 -8 30 4 7 3 10 -3 6
-15 -9 -29 42 -36 128 -2 28 -10 61 -17 75 -9 17 -10 25 -2 28 8 2 8 11 1 29
-5 14 -11 40 -14 57 -2 17 -7 47 -11 66 -5 19 -8 54 -8 78 -1 23 -4 42 -7 42
-3 0 -6 7 -6 15 0 8 4 15 9 15 4 0 8 -7 8 -15z m-945 -23 c-3 -3 -11 0 -18 7
-9 10 -8 11 6 5 10 -3 15 -9 12 -12z m1225 -16 c0 -3 -4 -8 -10 -11 -5 -3 -10
-1 -10 4 0 6 5 11 10 11 6 0 10 -2 10 -4z m-1056 -73 c-9 -39 -24 -52 -24 -22
0 21 16 49 27 49 2 0 0 -12 -3 -27z m-28 -79 c-4 -9 -9 -15 -11 -12 -3 3 -3
13 1 22 4 9 9 15 11 12 3 -3 3 -13 -1 -22z m-419 -50 c-3 -3 -12 -4 -19 -1 -8
3 -5 6 6 6 11 1 17 -2 13 -5z m409 -121 c-3 -43 -12 -114 -21 -158 -13 -70
-25 -117 -77 -302 -14 -49 -27 -57 -20 -13 2 17 9 30 14 30 6 0 7 7 4 15 -3 9
10 82 29 163 19 81 42 191 51 245 10 53 19 97 21 97 2 0 1 -35 -1 -77z m1144
-118 c9 -11 10 -19 3 -26 -8 -8 -13 -7 -19 3 -21 33 -8 52 16 23z m537 -161
c-3 -3 -12 -4 -19 -1 -8 3 -5 6 6 6 11 1 17 -2 13 -5z m-276 -471 c13 -16 12
-17 -3 -4 -17 13 -22 21 -14 21 2 0 10 -8 17 -17z m-1823 -138 c-3 -49 -9 -68
-23 -80 -34 -25 -47 -19 -40 18 7 32 54 127 63 127 2 0 2 -29 0 -65z m1256
-21 c3 -8 2 -12 -4 -9 -6 3 -10 10 -10 16 0 14 7 11 14 -7z m-1430 -96 c-16
-32 -31 -48 -47 -48 -12 0 4 52 32 100 l26 45 3 -32 c2 -17 -4 -47 -14 -65z
m1526 33 c0 -8 12 -29 26 -48 17 -22 23 -40 19 -53 -4 -13 -2 -20 5 -18 7 2
13 -9 14 -24 1 -15 12 -37 24 -48 29 -27 28 -36 -2 -13 -28 21 -56 67 -56 92
0 10 -10 30 -21 45 -12 15 -25 42 -29 59 -4 18 -11 41 -15 52 -6 16 -3 15 14
-5 11 -14 21 -31 21 -39z m-1593 -43 c-3 -8 -6 -5 -6 6 -1 11 2 17 5 13 3 -3
4 -12 1 -19z m267 -52 c-5 -12 -13 -16 -28 -12 -11 3 -28 6 -36 7 -8 0 3 6 25
13 47 15 48 14 39 -8z m-204 -10 c0 -2 -7 -6 -15 -10 -8 -3 -15 -1 -15 4 0 6
7 10 15 10 8 0 15 -2 15 -4z m-309 -13 c-10 -4 -10 -7 -1 -13 20 -12 -6 -50
-35 -50 -14 0 -25 5 -25 10 0 16 47 60 62 59 10 0 10 -2 -1 -6z m387 -49 c-2
-33 -2 -33 -20 -14 -50 53 -105 -17 -62 -78 14 -20 14 -22 -1 -22 -8 0 -20 10
-25 23 -5 12 -9 15 -9 7 -1 -10 -6 -7 -17 8 -8 12 -22 22 -30 22 -8 0 -14 5
-14 10 0 6 6 10 13 10 8 0 24 9 37 20 13 11 40 25 62 30 21 6 38 15 38 20 0 5
7 7 15 4 10 -4 15 -17 13 -40z m-557 -22 c0 -11 2 -13 6 -4 4 9 14 6 38 -13
22 -16 36 -21 41 -14 4 8 10 7 18 -1 8 -8 7 -14 -4 -23 -10 -8 -14 -26 -12
-52 1 -22 -5 -62 -13 -90 -8 -27 -13 -39 -12 -24 2 14 -3 31 -10 38 -8 7 -12
19 -9 27 3 8 0 11 -10 7 -8 -3 -14 -2 -13 3 1 5 0 16 -3 24 -7 19 -38 138 -38
145 0 15 20 -8 21 -23z m337 -24 c-5 -15 -66 -29 -74 -17 -3 5 9 9 25 9 17 0
31 5 31 10 0 6 5 10 11 10 6 0 9 -6 7 -12z m1670 -43 c-3 -3 -9 2 -12 12 -6
14 -5 15 5 6 7 -7 10 -15 7 -18z m32 -10 c0 -5 -5 -3 -10 5 -5 8 -10 20 -10
25 0 6 5 3 10 -5 5 -8 10 -19 10 -25z m-1915 -3 c0 -18 -20 -15 -23 4 -3 10 1
15 10 12 7 -3 13 -10 13 -16z m18 -61 c3 -14 1 -18 -9 -14 -8 3 -14 14 -14 25
0 23 16 16 23 -11z m235 -1 c19 0 23 -3 15 -11 -13 -13 -53 5 -52 24 0 9 2 9
6 0 2 -7 16 -13 31 -13z m-53 -30 c3 -5 -1 -10 -9 -10 -9 0 -16 5 -16 10 0 6
4 10 9 10 6 0 13 -4 16 -10z m-160 -46 c18 -43 18 -44 5 -44 -15 0 -43 48 -36
65 8 23 14 19 31 -21z m305 15 c0 -11 -4 -17 -10 -14 -5 3 -10 13 -10 21 0 8
5 14 10 14 6 0 10 -9 10 -21z m-110 2 c0 -5 -9 -7 -20 -4 -11 3 -20 7 -20 9 0
2 9 4 20 4 11 0 20 -4 20 -9z m148 -42 c4 -33 3 -33 -16 -16 -12 11 -18 26
-15 38 8 30 28 17 31 -22z m1479 19 c-3 -8 -6 -5 -6 6 -1 11 2 17 5 13 3 -3 4
-12 1 -19z m-1614 -17 c-2 -6 2 -11 8 -11 5 0 7 -5 4 -10 -4 -6 4 -19 17 -30
20 -17 21 -22 8 -32 -21 -18 -24 -48 -5 -48 18 0 19 -20 3 -55 -9 -21 -9 -28
1 -34 9 -6 10 -11 2 -15 -6 -4 -11 -2 -11 5 0 6 -8 9 -20 6 -13 -3 -20 0 -20
9 0 8 -7 14 -15 14 -16 0 -21 16 -6 22 5 2 6 18 4 36 -4 23 -10 32 -22 31 -31
-3 -34 1 -15 22 18 20 18 21 -1 31 -19 11 -19 11 0 20 16 7 14 8 -8 4 -36 -4
-46 13 -19 34 23 19 99 19 95 1z m97 -69 c11 -41 13 -79 4 -69 -4 3 -10 23
-14 44 -4 21 -11 47 -15 57 -6 13 -5 17 3 12 6 -4 16 -23 22 -44z m1399 -22
c0 -23 -1 -23 -9 -5 -5 11 -9 31 -9 45 0 23 1 23 9 5 5 -11 9 -31 9 -45z m138
38 c-3 -8 -6 -5 -6 6 -1 11 2 17 5 13 3 -3 4 -12 1 -19z m-103 -58 c12 -38 13
-42 0 -26 -7 11 -14 25 -14 32 0 7 -3 21 -7 31 -3 10 -4 16 0 13 3 -3 12 -25
21 -50z m-1395 26 c6 -7 9 -20 5 -29 -3 -8 -1 -18 5 -21 6 -4 8 -21 5 -39 -3
-25 -2 -28 5 -12 7 14 10 16 11 5 1 -8 3 -30 5 -48 l3 -34 -17 29 c-9 15 -22
51 -28 78 -7 28 -15 58 -18 68 -8 20 8 23 24 3z m1368 -58 c-3 -8 -6 -5 -6 6
-1 11 2 17 5 13 3 -3 4 -12 1 -19z m22 -50 c6 -18 7 -28 2 -23 -10 12 -25 55
-18 55 3 0 10 -15 16 -32z m-1605 -70 c-3 -18 -7 -48 -8 -66 -4 -40 -7 -44
-24 -26 -7 8 -10 14 -6 14 3 0 2 6 -3 13 -6 6 -13 29 -16 50 l-6 38 19 -23
c11 -13 20 -20 21 -15 1 4 3 12 4 17 1 6 3 15 4 20 0 6 6 10 11 10 6 0 8 -13
4 -32z m303 -30 c-3 -8 -6 -5 -6 6 -1 11 2 17 5 13 3 -3 4 -12 1 -19z m-207
-8 c0 -5 -2 -10 -4 -10 -3 0 -8 5 -11 10 -3 6 -1 10 4 10 6 0 11 -4 11 -10z
m10 -40 c0 -5 -2 -10 -4 -10 -3 0 -8 5 -11 10 -3 6 -1 10 4 10 6 0 11 -4 11
-10z m-416 -114 c4 -15 -4 -10 -29 19 -19 22 -34 44 -35 49 0 17 58 -45 64
-68z m2431 -246 c3 -5 1 -10 -4 -10 -6 0 -11 5 -11 10 0 6 2 10 4 10 3 0 8 -4
11 -10z m-555 -65 c0 -5 -5 -3 -10 5 -5 8 -10 20 -10 25 0 6 5 3 10 -5 5 -8
10 -19 10 -25z m484 -131 c3 -8 2 -12 -4 -9 -6 3 -10 10 -10 16 0 14 7 11 14
-7z"/>
<path d="M2524 5113 c3 -4 -4 -12 -16 -19 -22 -12 -22 -12 13 -19 20 -4 49 -5
65 -3 l29 3 -38 23 c-36 21 -69 30 -53 15z"/>
<path d="M2968 4973 c7 -3 16 -2 19 1 4 3 -2 6 -13 5 -11 0 -14 -3 -6 -6z"/>
<path d="M2550 4930 c-18 -12 -2 -12 25 0 13 6 15 9 5 9 -8 0 -22 -4 -30 -9z"/>
<path d="M2493 4809 c-46 -29 -41 -36 5 -8 46 28 47 29 36 29 -5 0 -24 -10
-41 -21z"/>
<path d="M2300 4650 c-13 -9 -13 -10 0 -10 8 0 22 5 30 10 13 9 13 10 0 10 -8
0 -22 -5 -30 -10z"/>
<path d="M1436 3205 c-3 -9 1 -26 9 -38 15 -21 15 -21 9 13 -8 43 -10 45 -18
25z"/>
<path d="M1230 2711 c0 -6 4 -13 10 -16 6 -3 7 1 4 9 -7 18 -14 21 -14 7z"/>
<path d="M1266 2637 c3 -10 9 -15 12 -12 3 3 0 11 -7 18 -10 9 -11 8 -5 -6z"/>
<path d="M2793 2205 c0 -8 4 -15 9 -15 4 0 8 -7 8 -17 0 -9 3 -14 6 -10 8 8
-4 57 -15 57 -4 0 -8 -7 -8 -15z"/>
<path d="M2990 2051 c0 -5 6 -14 14 -20 16 -13 32 2 21 19 -8 12 -35 13 -35 1z"/>
<path d="M1000 920 c0 -5 5 -10 11 -10 8 0 8 -5 -1 -15 -10 -13 -9 -15 9 -15
25 0 27 13 5 34 -18 19 -24 20 -24 6z"/>
<path d="M1025 849 c-4 -6 -5 -13 -2 -16 7 -7 27 6 27 18 0 12 -17 12 -25 -2z"/>
<path d="M1030 798 c0 -25 12 -58 21 -58 10 0 12 31 3 54 -7 19 -24 21 -24 4z"/>
<path d="M3320 5388 c0 -28 17 -41 36 -29 17 9 17 10 2 11 -11 0 -15 5 -12 15
4 9 0 15 -10 15 -9 0 -16 -6 -16 -12z"/>
<path d="M1036 5377 c-14 -11 -16 -19 -8 -47 6 -25 14 -34 25 -32 20 3 22 -24
6 -82 -9 -34 -8 -41 9 -58 17 -18 22 -18 53 -5 34 14 36 13 89 -25 32 -23 57
-35 63 -29 17 17 9 79 -16 128 -13 27 -24 62 -24 76 0 15 -6 39 -12 54 -11 27
-15 28 -90 30 -50 2 -84 -2 -95 -10z"/>
<path d="M3448 5378 c-27 -6 -48 -15 -48 -20 0 -6 6 -8 14 -5 16 6 116 25 161
30 17 2 5 4 -25 4 -30 0 -76 -4 -102 -9z"/>
<path d="M3680 5378 c116 -26 200 -51 211 -64 9 -11 8 -14 -5 -14 -11 0 -3
-13 25 -40 23 -22 47 -40 52 -40 5 0 7 -11 5 -25 -3 -14 -1 -25 3 -25 5 0 8
18 7 40 -1 31 -5 40 -19 40 -10 0 -21 5 -25 12 -5 8 -2 9 9 5 12 -5 17 -1 17
12 0 34 -228 115 -307 110 -10 -1 2 -6 27 -11z"/>
<path d="M2708 5373 c23 -2 61 -2 85 0 23 2 4 4 -43 4 -47 0 -66 -2 -42 -4z"/>
<path d="M3030 5371 c14 -4 43 -10 65 -13 l40 -6 -30 13 c-16 8 -46 14 -65 14
-31 -1 -32 -2 -10 -8z"/>
<path d="M4100 5372 c0 -4 16 -15 36 -24 35 -16 35 -16 18 3 -9 10 -21 16 -25
13 -5 -3 -9 0 -9 5 0 6 -4 11 -10 11 -5 0 -10 -4 -10 -8z"/>
<path d="M2858 5363 c7 -3 16 -2 19 1 4 3 -2 6 -13 5 -11 0 -14 -3 -6 -6z"/>
<path d="M3688 5353 c7 -3 16 -2 19 1 4 3 -2 6 -13 5 -11 0 -14 -3 -6 -6z"/>
<path d="M0 5291 c0 -35 4 -43 30 -56 16 -8 31 -15 33 -15 5 0 -8 89 -14 94
-2 2 -14 7 -26 10 -21 7 -23 4 -23 -33z"/>
<path d="M2360 5259 c0 -5 5 -7 10 -4 6 3 10 8 10 11 0 2 -4 4 -10 4 -5 0 -10
-5 -10 -11z"/>
<path d="M1637 5223 c-15 -14 -6 -53 19 -83 20 -24 29 -28 35 -18 13 20 11 82
-3 96 -13 13 -41 16 -51 5z"/>
<path d="M1793 5212 c-7 -4 -15 -25 -18 -47 -4 -31 -1 -46 14 -65 27 -34 39
-19 43 55 2 47 0 60 -12 62 -8 2 -20 -1 -27 -5z"/>
<path d="M2090 5195 c-7 -9 -10 -18 -6 -22 9 -10 58 16 51 27 -9 15 -31 12
-45 -5z"/>
<path d="M4005 5200 c-3 -5 -1 -10 4 -10 6 0 11 5 11 10 0 6 -2 10 -4 10 -3 0
-8 -4 -11 -10z"/>
<path d="M1300 5152 c0 -57 14 -62 25 -11 5 22 2 36 -9 47 -15 15 -16 12 -16
-36z"/>
<path d="M2131 5175 c-30 -14 -51 -28 -48 -31 5 -6 107 43 107 51 0 7 0 7 -59
-20z"/>
<path d="M4007 5174 c-3 -3 -3 -12 0 -20 3 -8 1 -14 -4 -14 -5 0 -10 -22 -12
-50 -1 -28 2 -50 8 -50 13 0 18 23 20 88 1 52 0 57 -12 46z"/>
<path d="M5667 5162 c-55 -60 26 -179 82 -123 26 26 29 102 5 125 -21 22 -67
20 -87 -2z"/>
<path d="M4856 5148 c-23 -33 -21 -103 4 -128 24 -24 72 -26 91 -4 7 9 13 40
13 69 0 29 -6 60 -13 69 -20 24 -77 21 -95 -6z"/>
<path d="M4112 5148 c-7 -7 -12 -16 -12 -20 0 -15 15 -8 28 12 13 22 3 27 -16
8z"/>
<path d="M3955 5139 c-4 -6 -5 -12 -2 -15 2 -3 7 2 10 11 7 17 1 20 -8 4z"/>
<path d="M1630 5134 c0 -18 26 -47 39 -43 8 3 3 13 -13 28 -14 14 -26 20 -26
15z"/>
<path d="M4162 5120 c0 -14 2 -19 5 -12 2 6 2 18 0 25 -3 6 -5 1 -5 -13z"/>
<path d="M3815 5110 c-4 -6 -10 -8 -14 -6 -4 3 -13 0 -21 -6 -12 -8 -12 -9 2
-5 9 3 18 1 20 -4 3 -10 78 16 78 26 0 10 -59 5 -65 -5z"/>
<path d="M4123 5109 c-15 -15 -17 -55 -3 -64 11 -7 24 35 18 60 -2 13 -5 14
-15 4z"/>
<path d="M3898 5069 l-33 -28 26 -1 c28 0 53 17 62 41 8 25 -19 19 -55 -12z"/>
<path d="M4151 5053 c-10 -26 -10 -27 4 -9 8 11 15 23 15 28 0 15 -7 8 -19
-19z"/>
<path d="M4173 5043 c-3 -10 -8 -22 -11 -27 -3 -5 0 -6 5 -3 11 7 25 47 17 47
-3 0 -7 -8 -11 -17z"/>
<path d="M128 4962 c-10 -2 -18 -8 -18 -13 0 -5 -3 -8 -7 -7 -5 2 -22 -3 -40
-11 -29 -12 -31 -15 -21 -37 6 -13 17 -24 24 -24 12 0 29 -28 26 -42 -3 -12
58 -40 73 -34 8 3 16 0 19 -7 7 -18 26 13 26 43 0 14 4 40 9 58 8 27 7 36 -10
53 -10 10 -22 19 -26 20 -5 0 -15 2 -23 3 -8 1 -23 1 -32 -2z"/>
<path d="M542 4946 c-21 -11 -22 -14 -8 -25 21 -17 22 -55 2 -48 -19 7 -78
-21 -74 -35 5 -14 99 -67 119 -68 28 0 52 36 44 67 -4 15 -9 39 -11 53 -10 57
-35 76 -72 56z"/>
<path d="M5255 4921 c-49 -21 -60 -73 -30 -147 20 -52 66 -85 128 -95 47 -8
51 -6 109 37 33 24 72 47 87 50 59 13 121 39 121 50 0 7 -14 21 -30 31 -18 10
-34 30 -38 48 l-8 30 -160 2 c-87 1 -168 -2 -179 -6z"/>
<path d="M4465 4853 c-35 -9 -45 -24 -45 -69 0 -23 6 -46 13 -51 62 -40 159
-38 181 5 9 17 15 21 21 13 5 -9 11 -7 22 8 17 25 65 28 83 6 10 -12 16 -13
26 -4 11 9 14 6 14 -19 0 -17 -6 -35 -14 -39 -19 -11 -36 -47 -36 -75 0 -43
-23 -78 -46 -72 -12 3 -47 -2 -78 -11 -32 -9 -68 -15 -81 -13 -17 4 -26 -1
-34 -19 -11 -24 -37 -33 -28 -9 9 22 -32 7 -44 -17 -10 -18 -9 -19 15 -13 23
6 26 3 26 -19 0 -14 3 -25 8 -26 4 -1 55 -3 114 -4 102 -3 107 -2 129 21 13
14 24 37 25 51 1 39 19 39 37 1 9 -18 30 -46 47 -63 30 -29 35 -30 141 -33
142 -5 164 3 184 70 8 27 24 65 36 85 22 35 22 47 3 153 -12 64 -47 79 -84 38
-12 -13 -29 -31 -38 -41 -28 -31 -93 -18 -136 27 -20 20 -40 36 -44 36 -5 0
-25 14 -43 30 -58 52 -88 60 -228 59 -69 -1 -135 -4 -146 -6z"/>
<path d="M5735 4827 c-19 -15 -18 -15 15 -21 19 -3 73 -7 120 -10 47 -3 95 -8
108 -12 19 -5 22 -3 22 20 0 20 -5 26 -22 26 -13 0 -68 3 -123 6 -80 5 -104 3
-120 -9z"/>
<path d="M1642 4798 c-13 -13 -16 -59 -5 -97 5 -21 8 -18 25 25 31 82 31 84
11 84 -11 0 -24 -5 -31 -12z"/>
<path d="M1681 4753 c-10 -26 -10 -27 4 -9 8 11 15 23 15 28 0 15 -7 8 -19
-19z"/>
<path d="M1267 4757 c-4 -10 -7 -28 -7 -40 1 -20 2 -20 11 -4 6 10 9 28 7 40
-3 20 -4 20 -11 4z"/>
<path d="M4185 4740 c3 -5 10 -10 16 -10 5 0 9 5 9 10 0 6 -7 10 -16 10 -8 0
-12 -4 -9 -10z"/>
<path d="M4208 4719 c-20 -11 -25 -49 -7 -49 7 0 9 9 6 21 -4 14 -2 19 7 16 7
-3 13 1 13 9 0 8 -1 14 -1 14 -1 0 -9 -5 -18 -11z"/>
<path d="M1670 4701 c-12 -24 -13 -34 -1 -27 9 6 22 46 15 46 -2 0 -8 -9 -14
-19z"/>
<path d="M1821 4694 c0 -11 3 -14 6 -6 3 7 2 16 -1 19 -3 4 -6 -2 -5 -13z"/>
<path d="M5610 4575 c-10 -12 -10 -18 0 -30 17 -20 27 -19 40 5 14 26 -21 48
-40 25z"/>
<path d="M5929 4574 c-9 -11 -9 -18 -1 -26 14 -14 42 -3 42 16 0 20 -27 27
-41 10z"/>
<path d="M4240 4545 c0 -8 4 -15 10 -15 5 0 7 7 4 15 -4 8 -8 15 -10 15 -2 0
-4 -7 -4 -15z"/>
<path d="M5368 4532 c-15 -9 -32 -27 -40 -40 -10 -20 -10 -28 5 -54 25 -44 22
-65 -11 -71 -15 -3 -40 -15 -55 -27 -26 -21 -27 -25 -26 -113 1 -133 23 -167
110 -172 48 -3 53 -1 90 37 22 23 45 38 53 35 9 -4 6 10 -10 41 -27 53 -30 75
-11 89 14 10 22 10 54 0 28 -10 32 -43 11 -87 -23 -45 -23 -59 4 -87 17 -18
21 -35 22 -95 1 -70 0 -73 -27 -82 -25 -9 -32 -6 -79 44 -52 53 -53 53 -108
51 -78 -3 -137 -17 -198 -47 -55 -28 -87 -29 -467 -22 -38 1 -101 1 -139 0
-66 -2 -68 -3 -53 -20 10 -10 17 -25 17 -33 0 -8 -8 -4 -20 11 -17 22 -22 23
-39 13 -27 -17 -28 -17 -34 7 -7 27 -44 26 -75 -2 -15 -14 -22 -18 -20 -9 2 8
-10 21 -26 29 -39 20 -80 6 -85 -28 -1 -14 -7 -28 -13 -31 -5 -3 4 -12 21 -19
17 -7 28 -16 26 -20 -3 -5 0 -12 6 -16 8 -4 9 -3 5 4 -4 7 -1 12 7 12 11 0 14
10 11 38 l-4 37 15 -36 c9 -20 27 -42 41 -49 27 -15 33 -33 7 -23 -10 4 2 -15
27 -41 58 -62 63 -72 54 -104 -5 -15 -9 -49 -9 -76 0 -48 -2 -50 -32 -59 -18
-6 -33 -16 -33 -23 0 -19 -10 -17 -26 4 -19 24 -17 30 9 25 30 -6 77 13 77 31
0 25 -18 28 -47 7 -16 -11 -53 -25 -83 -31 -70 -14 -98 -29 -55 -31 29 -1 29
-1 5 -8 -33 -9 -37 -34 -8 -50 l23 -12 -23 5 c-18 3 -25 -2 -33 -20 -13 -36
-13 -35 29 -29 27 4 32 3 17 -4 -11 -5 -30 -10 -42 -10 -36 -1 -27 -19 21 -41
59 -26 89 -25 122 5 15 14 32 25 38 25 5 0 -5 -13 -24 -28 -37 -32 -29 -49 14
-27 30 16 26 0 -6 -23 -10 -7 -18 -22 -18 -32 0 -18 3 -18 28 -7 15 6 33 17
39 23 7 7 18 14 25 17 10 3 7 14 -9 44 -23 40 -26 95 -7 113 5 5 28 5 50 1 23
-4 48 -5 55 -1 24 13 217 21 224 10 4 -6 11 -8 16 -4 6 3 18 -4 28 -15 17 -19
24 -20 60 -12 23 5 44 9 46 10 3 1 8 1 12 1 4 0 2 5 -4 11 -17 17 4 35 47 41
54 8 69 -4 63 -52 -4 -27 -2 -40 6 -40 18 0 30 42 18 68 -13 29 -4 37 24 22
18 -10 24 -10 33 2 14 19 57 30 70 19 6 -5 22 -11 36 -13 14 -1 29 -13 34 -25
10 -22 64 -53 93 -53 13 0 14 -3 5 -12 -24 -24 -15 -27 68 -20 24 2 27 22 3
22 -21 0 -12 9 16 15 11 2 25 6 30 9 8 5 48 14 176 40 33 7 126 18 183 22 67
4 185 33 194 48 13 18 10 400 -3 413 -6 6 -10 35 -8 64 3 68 1 162 -5 259 l-4
75 -109 6 c-59 4 -152 13 -206 20 -79 10 -109 10 -159 0 -52 -11 -63 -10 -76
3 -12 12 -13 22 -4 58 20 81 -4 128 -50 100z m390 -273 c18 -28 -1 -89 -28
-89 -10 0 -26 -3 -36 -7 -12 -4 -15 -3 -10 5 4 7 1 14 -6 16 -47 14 -48 15
-39 38 7 19 60 49 101 57 3 1 11 -8 18 -20z m-1348 -474 c12 -19 20 -39 18
-43 -2 -5 -13 11 -25 35 -27 52 -23 56 7 8z m-34 -328 c-16 -11 -26 -29 -27
-45 -1 -27 -1 -27 -8 3 -8 33 -3 58 9 50 5 -3 17 6 27 19 14 19 19 21 22 8 2
-9 -9 -24 -23 -35z m-106 28 c0 -8 -2 -15 -4 -15 -2 0 -6 7 -10 15 -3 8 -1 15
4 15 6 0 10 -7 10 -15z m40 -39 c0 -8 -4 -17 -8 -20 -4 -2 -8 4 -8 15 0 10 4
19 8 19 4 0 8 -6 8 -14z"/>
<path d="M178 4525 c-3 -4 -34 -8 -69 -11 -115 -9 -109 -3 -109 -93 l0 -79 47
-16 c60 -20 106 -20 163 1 25 9 46 17 47 18 2 1 6 27 9 58 7 66 -9 117 -36
117 -10 0 -25 2 -32 5 -8 3 -17 3 -20 0z"/>
<path d="M4331 4521 c-19 -3 -36 -12 -39 -20 -6 -17 40 -8 72 15 22 15 21 15
-33 5z"/>
<path d="M550 4503 c-29 -11 -29 -28 2 -60 18 -18 36 -33 40 -33 12 0 10 58
-2 81 -11 20 -15 21 -40 12z"/>
<path d="M4252 4499 c2 -6 8 -10 13 -10 5 0 11 4 13 10 2 6 -4 11 -13 11 -9 0
-15 -5 -13 -11z"/>
<path d="M4338 4492 c-56 -20 -70 -32 -37 -32 22 0 89 34 89 45 0 3 -1 5 -2 4
-2 0 -24 -8 -50 -17z"/>
<path d="M1060 4484 c0 -9 7 -39 15 -68 l15 -53 66 11 c77 13 95 32 70 72 -9
13 -23 24 -30 24 -8 0 -16 7 -20 15 -8 22 -116 21 -116 -1z"/>
<path d="M4335 4455 c-33 -11 -35 -14 -14 -14 14 -1 34 6 45 14 22 17 21 17
-31 0z"/>
<path d="M4280 4400 c0 -17 3 -19 18 -11 46 27 48 31 15 31 -27 0 -33 -4 -33
-20z"/>
<path d="M4103 4373 c-15 -5 -18 -33 -4 -33 5 0 11 9 14 20 3 11 4 20 4 19 -1
0 -8 -3 -14 -6z"/>
<path d="M1182 4360 c-51 -12 -50 -20 1 -18 31 2 47 7 47 15 0 14 -1 14 -48 3z"/>
<path d="M1251 4341 c-1 -37 17 -109 32 -128 15 -20 35 -15 53 12 16 25 15 26
-22 68 -22 24 -44 52 -51 63 -11 17 -12 16 -12 -15z"/>
<path d="M1660 4360 c-24 -8 -23 -8 8 -9 20 -1 31 3 27 9 -3 6 -7 10 -8 9 -1
-1 -13 -5 -27 -9z"/>
<path d="M1517 4339 c7 -7 15 -10 18 -7 3 3 -2 9 -12 12 -14 6 -15 5 -6 -5z"/>
<path d="M1306 4315 c9 -14 21 -25 27 -25 6 0 0 11 -13 25 -13 14 -25 25 -27
25 -2 0 4 -11 13 -25z"/>
<path d="M1458 4313 c-11 -14 -10 -15 12 -9 l25 8 -23 -17 c-21 -16 -21 -17
-5 -41 17 -22 22 -23 73 -17 30 3 71 6 90 6 27 -1 31 1 15 7 l-20 9 20 1 20 1
-20 9 c-11 5 -27 9 -35 9 -9 0 -8 -4 5 -9 20 -8 20 -9 -1 -9 -12 -1 -36 9 -55
22 -62 41 -86 48 -101 30z"/>
<path d="M1595 4321 l-30 -6 45 -18 c68 -25 90 -20 90 24 0 10 -58 10 -105 0z"/>
<path d="M4115 4250 c3 -5 8 -10 11 -10 2 0 4 5 4 10 0 6 -5 10 -11 10 -5 0
-7 -4 -4 -10z"/>
<path d="M4864 4230 c-11 -4 -28 -20 -38 -35 -16 -24 -17 -34 -7 -65 17 -57
28 -62 150 -64 93 -1 112 2 129 18 45 40 36 119 -15 144 -30 13 -186 16 -219
2z"/>
<path d="M1531 4223 c-71 -4 -73 -5 -48 -18 28 -15 107 -12 152 5 33 12 32 20
-2 18 -16 -1 -61 -4 -102 -5z"/>
<path d="M4486 4197 c-33 -28 -38 -38 -33 -59 13 -52 51 -69 115 -51 21 5 23
10 17 37 -4 17 -7 37 -8 44 0 6 -3 12 -7 12 -4 0 -12 11 -18 25 -6 14 -15 25
-19 25 -5 0 -26 -15 -47 -33z"/>
<path d="M4295 4180 c-18 -20 -17 -20 13 -20 34 0 41 10 19 29 -11 8 -18 6
-32 -9z"/>
<path d="M1625 4165 c-16 -13 -25 -24 -19 -25 6 0 21 11 34 25 30 32 24 32
-15 0z"/>
<path d="M360 4155 c-7 -8 -19 -15 -26 -15 -22 0 -88 -47 -112 -80 -26 -34
-27 -40 -8 -40 7 0 19 -6 26 -14 6 -8 28 -16 48 -18 35 -3 36 -4 39 -48 3 -62
22 -126 42 -143 14 -13 23 -12 71 4 53 18 150 26 163 13 3 -3 29 -7 58 -9 39
-2 56 2 69 15 17 17 17 19 -1 39 -11 12 -15 21 -10 21 6 0 8 7 5 15 -4 9 -7
30 -8 47 -2 48 -41 66 -145 67 -104 1 -136 21 -165 100 -21 59 -29 67 -46 46z"/>
<path d="M4118 4126 c-3 -27 -1 -33 9 -24 7 5 11 18 10 29 -5 33 -15 31 -19
-5z"/>
<path d="M4231 4141 c-11 -7 -11 -10 0 -17 7 -4 14 -3 16 3 2 5 16 8 31 5 33
-6 27 3 -8 11 -14 3 -31 2 -39 -2z"/>
<path d="M974 4096 c-4 -19 8 -50 50 -125 31 -55 60 -103 65 -105 5 -3 7 16 5
42 l-3 47 13 -53 c16 -62 23 -72 36 -52 12 19 13 120 1 120 -4 0 -6 10 -4 23
3 13 0 43 -7 66 -9 35 -14 41 -31 36 -13 -4 -19 -2 -19 9 0 12 -11 16 -50 16
-44 0 -50 -3 -56 -24z"/>
<path d="M1166 4104 c-3 -9 -6 -32 -6 -52 l0 -36 30 29 c36 35 38 48 6 63 -20
9 -25 8 -30 -4z"/>
<path d="M4255 4112 c-5 -4 -17 -16 -25 -26 -14 -18 -14 -19 5 -8 39 21 61 41
45 42 -8 0 -19 -4 -25 -8z"/>
<path d="M4210 4099 c0 -5 5 -7 10 -4 6 3 10 8 10 11 0 2 -4 4 -10 4 -5 0 -10
-5 -10 -11z"/>
<path d="M4284 4085 c-10 -8 -14 -15 -8 -15 5 0 19 7 30 15 10 8 14 15 8 15
-5 0 -19 -7 -30 -15z"/>
<path d="M3280 4086 c0 -2 6 -9 14 -15 10 -9 15 -8 19 2 3 8 -3 13 -14 14 -10
1 -19 0 -19 -1z"/>
<path d="M3218 4071 c-14 -5 -15 -9 -3 -24 11 -15 17 -17 32 -8 10 6 13 11 6
11 -6 0 -13 6 -15 14 -2 8 -10 11 -20 7z"/>
<path d="M4111 4054 c0 -11 3 -14 6 -6 3 7 2 16 -1 19 -3 4 -6 -2 -5 -13z"/>
<path d="M4135 4060 c3 -5 8 -10 11 -10 2 0 4 5 4 10 0 6 -5 10 -11 10 -5 0
-7 -4 -4 -10z"/>
<path d="M0 3934 l0 -124 44 0 c82 0 112 20 108 70 -6 66 -10 75 -31 78 -12 2
-20 9 -18 15 2 7 0 20 -5 30 -7 13 -4 17 12 17 40 0 19 19 -27 25 -27 3 -56 8
-65 10 -16 3 -18 -8 -18 -121z"/>
<path d="M1193 4033 c-14 -14 -22 -40 -28 -87 -4 -37 -4 -70 -2 -73 11 -10 37
46 48 101 13 72 9 86 -18 59z"/>
<path d="M952 4014 c-6 -17 -11 -22 -11 -11 -1 21 -14 22 -30 3 -8 -9 -35 -14
-87 -14 -42 0 -80 -4 -84 -8 -9 -9 48 -106 90 -154 17 -20 20 -21 15 -6 -3 11
0 23 7 28 20 12 24 10 36 -17 6 -14 19 -25 27 -25 9 0 14 4 11 9 -3 4 -2 28 3
52 l8 44 13 -32 c6 -18 16 -31 20 -28 4 3 11 -6 14 -20 5 -21 11 -24 51 -22
25 1 45 6 45 11 0 5 7 2 17 -5 9 -8 -4 16 -28 53 -24 36 -58 90 -75 119 l-31
52 -11 -29z"/>
<path d="M4120 4020 c-13 -8 -12 -10 3 -10 9 0 17 5 17 10 0 12 -1 12 -20 0z"/>
<path d="M1244 4009 c-5 -8 -14 -28 -20 -46 -11 -30 -10 -33 15 -42 14 -5 19
-10 10 -10 -40 -2 -70 -81 -30 -81 11 0 21 -3 24 -7 2 -5 2 -2 1 5 -4 15 20
16 47 1 17 -9 19 -8 10 8 -5 10 -14 32 -19 49 -9 29 -7 34 19 53 35 26 39 52
7 46 -12 -3 -24 -8 -27 -12 -3 -5 -17 -17 -31 -28 l-25 -20 23 26 c17 20 21
31 14 49 -7 19 -11 21 -18 9z"/>
<path d="M1336 3960 c-42 -47 -45 -74 -13 -121 20 -30 28 -34 66 -34 30 -1 45
4 51 16 5 9 7 19 3 22 -3 4 -1 12 4 19 6 7 18 35 28 61 11 29 21 43 25 36 5
-7 10 -8 14 -1 9 14 -15 21 -36 10 -20 -10 -24 2 -6 20 9 9 7 12 -8 12 -11 0
-31 -11 -44 -25 -21 -23 -24 -23 -36 -7 -7 9 -10 20 -8 24 13 20 -7 4 -40 -32z
m44 -24 c0 -2 -8 -10 -17 -17 -16 -13 -17 -12 -4 4 13 16 21 21 21 13z"/>
<path d="M4120 3980 c-9 -6 -10 -10 -3 -10 6 0 15 5 18 10 8 12 4 12 -15 0z"/>
<path d="M1513 3942 c-14 -9 -56 -103 -49 -109 3 -3 19 22 35 56 17 34 30 61
29 61 -2 0 -8 -4 -15 -8z"/>
<path d="M4180 3896 c0 -9 5 -16 10 -16 6 0 10 4 10 9 0 6 -4 13 -10 16 -5 3
-10 -1 -10 -9z"/>
<path d="M1519 3853 c-13 -16 -12 -17 4 -4 9 7 17 15 17 17 0 8 -8 3 -21 -13z"/>
<path d="M4194 3811 c3 -5 16 -11 28 -14 22 -6 22 -5 4 8 -22 17 -40 20 -32 6z"/>
<path d="M1276 3801 c-3 -5 8 -11 26 -13 28 -5 29 -4 13 9 -22 15 -32 16 -39
4z"/>
<path d="M4177 3795 c3 -8 9 -15 14 -15 4 0 6 -7 3 -15 -8 -20 10 -19 26 0 14
17 15 17 -22 33 -23 9 -26 9 -21 -3z"/>
<path d="M4241 3776 c-6 -7 -8 -16 -4 -19 3 -4 0 -7 -7 -7 -23 0 -1 -14 28
-18 14 -2 33 -8 40 -14 7 -7 4 5 -8 25 -27 45 -35 51 -49 33z"/>
<path d="M320 3723 c-33 -12 -60 -46 -54 -68 3 -13 -1 -28 -10 -38 -16 -15
-99 -28 -172 -26 -23 1 -51 -2 -62 -6 l-22 -6 0 -515 0 -514 37 0 c23 0 45 7
58 20 24 22 102 40 177 40 27 0 74 8 106 19 31 10 98 21 149 24 89 4 91 4 96
-18 5 -28 -8 -32 -135 -34 -50 -1 -111 -7 -137 -12 -25 -6 -75 -14 -111 -19
-80 -11 -155 -26 -195 -40 -26 -9 -24 -9 16 -4 51 5 99 -3 99 -17 0 -5 -8 -9
-17 -9 -10 0 -25 -5 -33 -10 -10 -7 10 -9 63 -6 76 4 127 23 127 48 0 7 18 9
51 6 28 -3 69 -1 91 4 65 14 133 18 166 9 28 -8 31 -7 42 20 7 16 17 32 22 35
6 4 5 -3 -1 -14 -19 -36 -14 -52 17 -52 29 0 77 39 57 47 -7 2 -8 24 -4 61 7
62 22 110 33 102 4 -3 14 9 21 27 12 28 12 32 -3 36 -13 4 -12 5 3 6 22 1 56
49 66 91 3 14 11 24 18 22 7 -1 10 2 6 7 -6 11 18 66 43 94 10 11 11 17 3 17
-7 0 -9 5 -6 10 4 6 10 8 15 5 4 -3 6 5 3 16 -4 12 -15 24 -25 27 -14 3 -16 7
-8 12 9 6 10 20 2 56 -15 67 -7 67 12 0 9 -31 22 -56 29 -56 7 0 23 19 36 43
13 23 37 59 54 80 24 31 28 44 23 75 -5 31 -4 33 4 13 8 -19 13 -22 22 -13 9
9 8 19 -5 41 -25 42 -21 51 8 16 24 -29 31 -25 25 15 -1 8 1 12 5 8 8 -8 45
34 45 50 0 6 5 12 11 14 16 5 1 48 -16 48 -8 0 -17 5 -21 12 -4 7 -3 8 4 4 7
-4 12 -2 12 3 0 6 -4 11 -10 11 -5 0 -10 7 -10 15 0 8 -9 32 -21 53 l-21 37 5
-34 c4 -34 4 -34 -13 -13 l-18 22 -15 -38 c-15 -37 -14 -50 9 -144 6 -26 5
-27 -20 -15 -15 7 -20 13 -12 15 11 2 12 11 3 43 -7 29 -6 51 2 78 16 54 15
58 -21 64 -18 4 -43 9 -56 13 -18 5 -21 3 -16 -10 8 -21 -29 -22 -46 -1 -7 8
-17 12 -23 8 -6 -3 -105 -6 -221 -5 -195 0 -265 8 -267 29 -6 60 -28 81 -69
66z m590 -207 c0 -6 -7 -2 -15 8 -8 11 -15 25 -15 30 0 6 7 2 15 -8 8 -11 15
-25 15 -30z m260 -19 c0 -2 -8 -11 -18 -20 -16 -15 -18 -15 -18 3 0 13 7 20
18 20 10 0 18 -2 18 -3z m-40 -57 c0 -5 -5 -10 -11 -10 -5 0 -7 5 -4 10 3 6 8
10 11 10 2 0 4 -4 4 -10z m30 6 c0 -3 -4 -8 -10 -11 -5 -3 -10 -1 -10 4 0 6 5
11 10 11 6 0 10 -2 10 -4z m-657 -79 c18 -8 38 -26 46 -41 10 -17 21 -25 35
-24 12 2 23 -1 25 -7 2 -5 12 -16 22 -23 25 -17 24 -43 -1 -49 -11 -3 -20 -13
-20 -22 0 -20 -37 -44 -52 -35 -7 4 -8 3 -4 -4 4 -7 2 -12 -3 -12 -6 0 -11 6
-12 13 0 8 -2 8 -5 1 -5 -13 -54 -6 -54 7 0 5 -11 14 -24 19 -15 5 -23 16 -22
27 2 9 -6 32 -16 49 -23 40 -16 74 20 97 33 20 26 20 65 4z m141 -181 c-6 -27
-18 -33 -29 -16 -3 6 -1 10 5 10 6 0 8 5 4 11 -3 6 0 15 7 20 18 11 21 6 13
-25z m-64 -71 c0 -1 -10 -5 -23 -7 -14 -3 -24 0 -24 7 0 7 10 10 24 7 13 -2
23 -6 23 -7z m289 -8 c-10 -9 -89 -36 -89 -31 0 7 61 33 79 34 8 0 12 -2 10
-3z m-579 -41 c0 -3 -4 -8 -10 -11 -5 -3 -10 -1 -10 4 0 6 5 11 10 11 6 0 10
-2 10 -4z m480 1 c0 -2 -15 -16 -32 -33 l-33 -29 29 33 c28 30 36 37 36 29z
m-447 -88 c-8 -8 -16 -8 -30 0 -16 9 -14 10 12 11 21 0 26 -3 18 -11z m402
-129 c10 -11 16 -20 13 -20 -3 0 -13 9 -23 20 -10 11 -16 20 -13 20 3 0 13 -9
23 -20z m-14 -203 c-13 -12 -20 -15 -16 -7 14 26 28 41 33 35 3 -3 -5 -16 -17
-28z m-466 -127 c-3 -5 -10 -10 -16 -10 -5 0 -9 5 -9 10 0 6 7 10 16 10 8 0
12 -4 9 -10z"/>
<path d="M4186 3708 c-9 -35 -8 -38 19 -38 14 0 25 -4 25 -9 0 -5 7 -11 15
-15 22 -8 13 17 -10 29 -11 6 -25 21 -31 33 l-11 23 -7 -23z"/>
<path d="M4320 3720 c0 -5 5 -10 11 -10 5 0 7 5 4 10 -3 6 -8 10 -11 10 -2 0
-4 -4 -4 -10z"/>
<path d="M4215 3699 c4 -6 14 -8 22 -5 8 3 12 2 9 -3 -6 -10 24 -25 32 -16 3
2 -1 11 -8 20 -14 17 -65 21 -55 4z"/>
<path d="M4340 3670 c0 -5 5 -10 10 -10 6 0 10 5 10 10 0 6 -4 10 -10 10 -5 0
-10 -4 -10 -10z"/>
<path d="M4275 3630 c-8 -13 5 -13 25 0 13 8 13 10 -2 10 -9 0 -20 -4 -23 -10z"/>
<path d="M4195 3620 c-3 -6 1 -7 9 -4 18 7 21 14 7 14 -6 0 -13 -4 -16 -10z"/>
<path d="M4333 3603 c-23 -16 -30 -33 -14 -33 5 0 19 8 32 18 28 23 12 35 -18
15z"/>
<path d="M1141 3605 c0 -5 8 -26 19 -45 l19 -35 1 33 c0 21 -5 32 -14 32 -8 0
-17 6 -19 13 -3 6 -6 8 -6 2z"/>
<path d="M1275 3599 c-9 -14 -2 -20 14 -10 8 6 9 11 3 15 -6 3 -14 1 -17 -5z"/>
<path d="M4218 3603 c-10 -2 -18 -9 -18 -14 0 -14 16 -11 30 6 7 8 11 14 9 14
-2 -1 -12 -3 -21 -6z"/>
<path d="M4264 3598 c10 -6 22 -6 26 -2 5 5 -3 10 -18 11 -22 1 -24 0 -8 -9z"/>
<path d="M1196 3583 c-9 -33 -1 -66 16 -69 23 -3 52 41 40 63 -8 14 -10 14
-16 -5 -4 -12 -14 -22 -22 -22 -19 0 -18 16 1 24 19 7 20 26 1 26 -8 0 -17 -8
-20 -17z"/>
<path d="M3127 3586 c-3 -8 -2 -18 3 -21 13 -8 20 9 11 24 -6 10 -10 9 -14 -3z"/>
<path d="M1290 3565 c-8 -9 -8 -15 -2 -15 12 0 26 19 19 26 -2 2 -10 -2 -17
-11z"/>
<path d="M3170 3570 c0 -6 7 -10 15 -10 8 0 15 2 15 4 0 2 -7 6 -15 10 -8 3
-15 1 -15 -4z"/>
<path d="M4225 3565 c-30 -14 -30 -14 -4 -15 14 0 34 7 45 15 25 19 1 19 -41
0z"/>
<path d="M1254 3518 l-19 -23 23 19 c12 11 22 21 22 23 0 8 -8 2 -26 -19z"/>
<path d="M1180 3430 c-12 -16 -19 -30 -16 -30 2 0 14 14 26 30 12 17 19 30 16
30 -2 0 -14 -13 -26 -30z"/>
<path d="M4156 3413 c-6 -14 -5 -15 5 -6 7 7 10 15 7 18 -3 3 -9 -2 -12 -12z"/>
<path d="M2240 3372 c0 -5 9 -12 21 -15 13 -3 19 -1 16 6 -5 15 -37 22 -37 9z"/>
<path d="M4190 3315 c14 -8 32 -14 40 -14 8 0 0 6 -19 14 -42 19 -54 19 -21 0z"/>
<path d="M4180 3281 c0 -15 45 -24 83 -17 19 4 27 3 22 -3 -18 -16 -103 -19
-125 -4 -23 16 -26 5 -6 -22 11 -15 24 -18 67 -16 29 1 58 5 63 9 6 4 16 7 21
7 6 0 11 9 13 20 2 18 -4 21 -60 23 -34 2 -66 6 -70 8 -4 3 -8 1 -8 -5z m63
-48 c-7 -2 -21 -2 -30 0 -10 3 -4 5 12 5 17 0 24 -2 18 -5z"/>
<path d="M4092 3034 c-14 -11 -6 -13 53 -14 39 -1 162 -3 275 -5 139 -3 195
-1 175 5 -91 29 -469 39 -503 14z"/>
<path d="M2486 3027 c3 -10 9 -15 12 -12 3 3 0 11 -7 18 -10 9 -11 8 -5 -6z"/>
<path d="M4653 3014 c9 -9 86 -20 192 -28 l70 -6 -60 14 c-73 17 -213 31 -202
20z"/>
<path d="M5890 3010 c-19 -4 -26 -16 -36 -55 -6 -28 -12 -43 -13 -35 -1 11 -7
8 -22 -10 -20 -23 -20 -25 -3 -37 12 -9 14 -13 4 -13 -7 0 -10 -3 -6 -7 4 -5
13 -8 19 -8 5 0 12 -6 15 -13 2 -7 0 -12 -5 -11 -24 4 -33 -4 -33 -30 0 -31
29 -53 31 -23 2 33 17 -44 18 -96 1 -42 -3 -54 -16 -59 -23 -9 -34 -21 -52
-55 -8 -16 -19 -28 -25 -28 -6 0 -4 -5 4 -10 12 -8 11 -10 -7 -10 -12 0 -24 4
-28 10 -8 13 -35 1 -70 -31 -33 -31 -111 -63 -120 -49 -3 5 -12 7 -20 3 -8 -3
-15 0 -15 6 0 6 -4 11 -9 11 -5 0 -7 -9 -4 -20 3 -12 -2 -28 -10 -38 -15 -16
-16 -50 -2 -88 2 -7 -2 -20 -9 -30 -7 -11 -19 -41 -26 -69 -28 -105 -57 -65
-54 78 1 54 -3 111 -9 127 -9 23 -9 35 0 48 6 11 9 42 6 74 -2 35 0 59 7 63
15 9 18 5 25 -34 4 -21 2 -30 -5 -26 -5 3 -10 1 -10 -5 0 -7 7 -9 15 -6 10 3
18 -1 22 -12 3 -9 14 -25 24 -35 22 -20 49 -9 65 27 5 11 19 22 31 24 32 5 47
26 34 51 -12 22 -15 65 -3 58 7 -5 8 5 13 93 1 31 6 40 19 40 24 0 73 -59 65
-78 -3 -8 0 -22 7 -30 9 -10 9 -13 1 -9 -7 4 -18 -5 -27 -24 -9 -18 -16 -33
-16 -34 0 -1 13 -1 28 0 41 2 54 13 42 34 -5 10 -8 39 -6 64 1 27 -2 48 -8 51
-7 3 -6 5 2 5 6 1 12 7 12 15 0 23 -29 71 -42 71 -7 0 -13 9 -13 20 0 11 -4
26 -8 33 -5 6 -6 16 -3 20 10 16 -44 11 -88 -9 -25 -11 -48 -20 -51 -20 -2 0
-35 -9 -72 -20 -38 -11 -99 -24 -136 -30 -37 -6 -107 -23 -155 -39 -48 -15
-107 -31 -132 -35 -25 -4 -53 -12 -63 -17 -10 -5 -43 -11 -75 -14 -64 -5 -140
-23 -147 -34 -3 -4 -51 -22 -107 -40 -57 -17 -213 -67 -348 -110 -135 -43
-299 -93 -364 -112 -66 -18 -121 -39 -124 -45 -2 -7 15 -32 37 -55 46 -47 42
-74 -6 -41 -34 22 -85 20 -76 -4 3 -8 20 -21 37 -29 28 -12 29 -13 7 -14 -17
0 -22 -4 -17 -16 3 -9 6 -32 6 -53 l0 -37 109 -53 109 -54 28 22 c30 24 72 28
80 7 3 -8 13 -12 22 -9 21 5 97 -82 86 -99 -4 -7 -3 -8 4 -4 18 11 82 -5 82
-20 0 -9 12 -15 33 -16 17 0 37 -2 42 -3 6 -2 16 -3 23 -4 6 0 12 -5 12 -11 0
-5 -7 -7 -16 -3 -15 5 -15 3 0 -25 21 -40 30 -45 69 -36 l32 7 -40 18 -40 18
32 0 c23 1 37 -5 45 -19 13 -21 38 -27 38 -10 0 5 -11 17 -25 26 -14 9 -23 19
-21 22 6 5 132 -67 181 -104 37 -28 154 -76 167 -68 4 3 7 1 6 -4 -2 -5 21
-28 50 -51 28 -23 71 -62 93 -86 l42 -45 29 18 c16 11 35 29 41 42 16 31 135
111 161 109 33 -3 76 18 70 35 -7 19 77 69 100 60 11 -4 31 5 56 25 21 17 41
31 44 31 2 0 17 5 33 12 15 6 31 12 35 12 3 1 19 19 34 41 14 22 31 43 37 47
24 15 -5 21 -44 9 -40 -12 -43 -12 -66 16 -16 19 -26 24 -29 15 -3 -6 -10 -9
-16 -6 -5 3 -8 0 -7 -7 7 -45 -64 -157 -102 -163 -8 -1 -19 -5 -25 -9 -29 -17
-78 4 -61 26 1 2 -4 12 -12 21 -12 15 -12 19 6 31 25 17 46 72 32 80 -15 10
-11 38 6 32 8 -4 17 -2 20 3 9 15 25 12 25 -5 0 -8 5 -15 10 -15 6 0 10 10 10
23 0 26 49 60 74 51 17 -6 21 8 17 54 -2 28 12 42 69 66 25 11 59 30 77 43 17
13 39 23 47 23 9 0 16 4 16 9 0 5 20 7 45 6 33 -3 45 0 45 10 0 20 17 28 37
17 9 -6 24 -6 32 -1 9 4 33 11 54 14 42 7 59 32 50 78 -3 16 -1 27 6 27 7 0
11 29 11 85 0 49 -4 85 -10 85 -5 0 -17 15 -27 33 -22 43 -20 166 4 184 9 7
20 10 24 7 5 -3 9 36 9 86 0 88 -1 91 -20 85 -21 -7 -54 11 -45 24 5 9 -11 9
-45 1z m-680 -521 c0 -6 -4 -7 -10 -4 -5 3 -10 11 -10 16 0 6 5 7 10 4 6 -3
10 -11 10 -16z m60 -9 c0 -5 -5 -10 -11 -10 -5 0 -7 5 -4 10 3 6 8 10 11 10 2
0 4 -4 4 -10z m-277 -124 c8 -20 -14 -35 -37 -27 -17 7 -17 8 -2 24 21 21 32
21 39 3z m287 -395 c0 -5 -8 -17 -17 -27 -10 -10 -18 -21 -18 -25 0 -5 -9 -15
-20 -23 -21 -15 -22 -17 -24 -65 0 -16 -8 -32 -17 -35 -23 -9 -64 23 -64 50 0
31 -6 30 -60 -6 -25 -16 -51 -30 -57 -30 -16 0 -29 -50 -16 -59 11 -8 12 -51
0 -51 -4 0 -6 -4 -2 -9 3 -5 1 -12 -4 -15 -13 -8 -34 21 -38 52 -1 15 -4 38
-5 52 -2 19 2 26 20 28 13 2 22 10 22 21 0 35 60 71 127 75 12 1 35 13 50 27
15 15 37 31 48 37 24 14 75 15 75 3z"/>
<path d="M4315 2900 c138 -47 166 -53 187 -43 22 11 21 12 -17 29 -24 10 -73
18 -120 20 -64 3 -74 2 -50 -6z"/>
<path d="M866 2874 c-4 -9 -4 -19 -1 -22 2 -3 7 3 11 12 4 9 4 19 1 22 -2 3
-7 -3 -11 -12z"/>
<path d="M828 2791 c3 -9 1 -13 -3 -8 -5 4 -19 -16 -31 -45 -31 -77 -38 -102
-25 -94 6 4 11 13 11 20 0 8 9 35 21 61 16 35 23 44 30 34 7 -11 9 -11 9 3 0
9 2 23 5 31 4 8 0 14 -9 14 -9 0 -12 -6 -8 -16z"/>
<path d="M2920 2729 c0 -5 5 -7 10 -4 6 3 10 8 10 11 0 2 -4 4 -10 4 -5 0 -10
-5 -10 -11z"/>
<path d="M961 2664 c0 -11 3 -14 6 -6 3 7 2 16 -1 19 -3 4 -6 -2 -5 -13z"/>
<path d="M1065 2610 c3 -5 16 -15 28 -21 22 -12 22 -12 3 10 -19 21 -43 30
-31 11z"/>
<path d="M740 2550 c0 -5 5 -10 10 -10 6 0 10 5 10 10 0 6 -4 10 -10 10 -5 0
-10 -4 -10 -10z"/>
<path d="M0 2469 c0 -12 5 -19 12 -17 18 6 20 25 3 31 -10 5 -15 0 -15 -14z"/>
<path d="M298 2403 c7 -3 16 -2 19 1 4 3 -2 6 -13 5 -11 0 -14 -3 -6 -6z"/>
<path d="M3786 2353 c-11 -11 -6 -23 9 -23 8 0 15 4 15 9 0 13 -16 22 -24 14z"/>
<path d="M3820 2320 c0 -5 5 -10 11 -10 5 0 7 5 4 10 -3 6 -8 10 -11 10 -2 0
-4 -4 -4 -10z"/>
<path d="M3662 2259 c-5 -19 -6 -37 -3 -41 18 -19 121 -66 121 -55 -1 36 -13
57 -31 52 -12 -4 -19 -1 -19 7 0 8 -13 27 -29 42 l-30 29 -9 -34z"/>
<path d="M3740 2261 c0 -5 7 -15 17 -22 15 -13 15 -12 4 9 -12 23 -21 28 -21
13z"/>
<path d="M635 2228 c-2 -7 -2 -24 -1 -38 2 -14 4 -31 5 -37 0 -7 4 -12 9 -12
21 4 30 -3 25 -20 -4 -14 2 -20 24 -23 15 -3 36 -9 47 -13 16 -7 17 -5 11 16
-4 13 -11 25 -16 27 -5 2 -3 12 3 22 7 11 9 23 5 27 -5 4 -12 2 -16 -5 -4 -7
-20 -15 -35 -18 -22 -4 -27 -1 -24 12 4 23 28 30 28 9 0 -9 5 -13 10 -10 13 8
13 55 0 55 -6 0 -22 -11 -36 -25 -14 -14 -28 -25 -31 -25 -4 0 -2 5 5 12 15
15 16 58 2 58 -6 0 -12 -6 -15 -12z"/>
<path d="M853 2213 c-17 -3 -21 -11 -21 -34 1 -43 13 -44 42 -6 37 48 35 51
-21 40z"/>
<path d="M770 2186 c0 -9 7 -12 20 -9 31 8 34 23 6 23 -16 0 -26 -6 -26 -14z"/>
<path d="M5942 2176 c-70 -37 -187 -125 -177 -134 2 -3 14 3 26 14 11 10 62
39 112 64 55 27 93 52 95 63 4 22 -3 21 -56 -7z"/>
<path d="M787 2139 c-9 -6 -15 -14 -12 -19 8 -13 45 0 45 16 0 16 -8 17 -33 3z"/>
<path d="M635 2120 c3 -5 10 -10 16 -10 5 0 9 5 9 10 0 6 -7 10 -16 10 -8 0
-12 -4 -9 -10z"/>
<path d="M655 2080 c-3 -5 1 -10 9 -10 9 0 16 5 16 10 0 6 -4 10 -9 10 -6 0
-13 -4 -16 -10z"/>
<path d="M686 2069 c-11 -11 -25 -19 -33 -19 -7 0 -13 -5 -13 -11 0 -7 9 -9
23 -5 12 4 39 10 60 13 46 7 59 23 18 23 -16 0 -31 4 -33 9 -1 4 -12 0 -22
-10z"/>
<path d="M780 2070 c0 -19 3 -21 12 -12 9 9 9 15 0 24 -9 9 -12 7 -12 -12z"/>
<path d="M4040 2035 c-11 -13 -10 -14 2 -10 10 4 17 -2 22 -17 4 -17 8 -20 15
-10 6 10 10 2 15 -25 9 -50 59 -196 70 -204 5 -4 9 -22 10 -41 1 -31 3 -34 19
-24 22 14 22 52 1 60 -13 5 -15 15 -11 44 3 20 9 46 13 57 7 17 6 18 -8 7 -14
-11 -18 -10 -27 6 -6 11 -14 45 -17 76 -5 44 -11 56 -24 56 -9 0 -25 9 -35 20
-22 24 -29 25 -45 5z m80 -56 c0 -5 -4 -9 -10 -9 -5 0 -10 7 -10 16 0 8 5 12
10 9 6 -3 10 -10 10 -16z"/>
<path d="M676 2021 c-34 -20 -47 -44 -19 -35 17 5 17 5 1 -9 -10 -8 -15 -17
-11 -21 4 -3 6 -26 4 -50 -2 -39 0 -44 17 -39 11 2 23 0 26 -6 5 -7 -3 -11
-19 -11 -20 0 -26 -4 -22 -14 4 -11 1 -13 -11 -9 -14 5 -14 3 2 -9 10 -8 19
-25 20 -39 1 -14 8 -25 19 -27 25 -5 33 25 12 48 -18 19 -17 20 13 20 24 0 32
4 32 18 0 19 -24 45 -50 55 -8 3 1 6 20 6 19 1 41 5 48 9 19 13 3 42 -32 58
-26 11 -27 13 -9 14 34 0 53 11 53 30 0 33 -47 39 -94 11z m62 -8 c2 -8 -5
-13 -17 -13 -12 0 -21 6 -21 16 0 18 31 15 38 -3z m-20 -72 c10 -6 9 -10 -7
-14 -21 -5 -36 5 -24 17 8 8 15 7 31 -3z"/>
<path d="M4180 1970 c0 -5 7 -10 16 -10 8 0 12 5 9 10 -3 6 -10 10 -16 10 -5
0 -9 -4 -9 -10z"/>
<path d="M5947 1959 c-9 -35 -92 -93 -133 -93 -18 0 -32 -2 -31 -5 0 -4 -9
-25 -21 -48 -12 -24 -19 -43 -15 -43 5 0 49 27 98 59 63 41 94 56 102 49 22
-18 53 9 53 46 0 29 -3 33 -19 29 -13 -3 -20 1 -23 14 -3 14 -5 13 -11 -8z"/>
<path d="M4190 1934 c0 -8 5 -12 10 -9 6 4 8 11 5 16 -9 14 -15 11 -15 -7z"/>
<path d="M4245 1897 c-4 -10 -5 -21 -1 -24 10 -10 18 4 13 24 -4 17 -4 17 -12
0z"/>
<path d="M4270 1872 c0 -10 7 -27 16 -38 15 -18 15 -18 10 6 -3 14 -6 31 -6
38 0 6 -4 12 -10 12 -5 0 -10 -8 -10 -18z"/>
<path d="M4307 1870 c7 -25 19 -34 28 -20 7 11 -11 40 -25 40 -5 0 -6 -9 -3
-20z"/>
<path d="M4356 1882 c-3 -6 7 -26 23 -44 36 -40 43 -18 8 26 -15 19 -26 25
-31 18z"/>
<path d="M4340 1828 c0 -9 5 -20 10 -23 13 -8 13 5 0 25 -8 13 -10 13 -10 -2z"/>
<path d="M5641 1715 c-42 -32 -53 -44 -46 -54 3 -6 12 -8 20 -4 9 3 15 -1 15
-11 0 -9 4 -16 9 -16 18 0 41 31 41 55 0 13 7 30 15 39 14 13 13 15 -6 13 -12
-1 -34 -11 -48 -22z"/>
<path d="M5363 1681 c-26 -13 -33 -23 -34 -48 -2 -42 -2 -42 -25 -82 -37 -65
-48 -75 -71 -63 -13 7 -23 26 -27 51 l-6 40 -48 -21 c-26 -12 -57 -28 -70 -36
-21 -14 -21 -16 -7 -36 8 -11 32 -52 54 -89 30 -53 40 -64 45 -50 4 10 10 13
14 8 10 -14 42 -18 42 -5 0 6 4 9 9 5 5 -3 17 2 25 11 10 9 24 13 34 9 16 -6
16 -7 0 -16 -10 -5 -21 -11 -25 -12 -5 -1 -19 -14 -32 -30 -29 -34 -30 -77 -5
-173 l16 -61 27 24 c31 30 67 51 57 34 -4 -6 -1 -11 8 -11 31 0 70 22 110 63
24 23 60 58 82 77 48 43 84 86 84 101 0 6 7 8 16 5 9 -4 13 -2 8 5 -4 7 -1 10
7 7 7 -2 24 6 37 19 12 13 31 23 42 23 10 0 22 5 25 10 3 6 15 10 26 10 25 0
32 20 20 53 -7 17 -7 28 -1 32 6 4 10 0 10 -9 0 -17 25 -15 48 5 9 8 34 25 55
38 20 12 37 26 38 29 3 24 8 50 15 72 7 23 6 24 -9 11 -24 -19 -95 -31 -101
-17 -3 6 -8 1 -11 -11 -4 -13 -11 -20 -16 -17 -5 3 -12 -8 -15 -25 -8 -36 -41
-74 -57 -64 -7 4 -20 18 -31 31 l-18 23 -24 -22 c-13 -12 -24 -19 -24 -16 0 4
-9 -1 -20 -10 -11 -10 -20 -23 -20 -30 0 -7 -14 -11 -36 -10 -30 2 -36 6 -41
30 -6 29 -21 34 -43 15 -8 -7 -7 -3 3 8 17 21 17 22 -9 22 -31 0 -50 20 -66
74 -12 42 -17 43 -65 19z m106 -219 c-23 -20 -53 -47 -67 -60 -18 -17 -33 -22
-59 -20 l-36 3 46 51 c26 28 43 55 39 60 -4 4 0 3 10 -4 11 -9 18 -10 23 -2 3
6 10 8 15 5 5 -3 22 1 37 9 44 23 39 -1 -8 -42z m321 48 c0 -5 -7 -10 -16 -10
-8 0 -12 5 -9 10 3 6 10 10 16 10 5 0 9 -4 9 -10z m-621 -37 c0 -25 -1 -25 -8
-8 -5 11 -7 23 -4 28 8 14 13 7 12 -20z"/>
<path d="M4167 1665 c-3 -11 -11 -47 -17 -80 -7 -33 -23 -80 -36 -105 -71
-131 -93 -153 -162 -156 -52 -2 -81 -15 -144 -67 -50 -40 -61 -60 -30 -55 12
2 17 -4 17 -22 0 -30 16 -52 30 -39 5 5 16 9 25 9 8 0 28 7 44 15 38 20 43 19
62 -10 13 -20 14 -28 5 -39 -8 -9 -12 -52 -13 -113 0 -83 -4 -105 -24 -146
-23 -47 -32 -85 -39 -172 -2 -22 -8 -53 -15 -70 -6 -16 -16 -57 -21 -90 -6
-33 -14 -67 -19 -76 -8 -15 -5 -16 18 -10 26 8 27 10 25 70 -3 70 10 104 63
164 29 31 32 40 22 56 -9 15 -7 26 11 56 18 30 20 43 12 65 -5 15 -6 32 -2 36
4 5 13 34 20 64 14 58 27 93 66 175 30 64 45 122 45 173 0 44 12 58 48 53 20
-2 22 1 23 56 1 32 3 97 5 145 4 89 -7 154 -19 113z m-197 -480 c0 -8 -4 -15
-10 -15 -5 0 -10 7 -10 15 0 8 5 15 10 15 6 0 10 -7 10 -15z"/>
<path d="M700 1542 c0 -9 5 -33 10 -52 6 -19 13 -48 15 -65 11 -65 21 -99 32
-102 16 -6 29 45 15 59 -6 6 -5 19 5 39 17 33 5 59 -27 59 -13 0 -16 6 -12 25
4 25 -12 55 -29 55 -5 0 -9 -8 -9 -18z"/>
<path d="M5921 1494 c-23 -20 -45 -34 -48 -31 -3 4 -18 0 -34 -9 -16 -8 -29
-12 -29 -8 0 15 -33 -23 -52 -60 -24 -47 -60 -84 -76 -78 -7 2 -12 -1 -12 -7
0 -15 -66 -81 -74 -74 -3 4 -6 1 -6 -5 0 -7 -9 -12 -20 -12 -23 0 -42 -32 -47
-80 -2 -19 -8 -37 -14 -38 -5 -2 -6 -8 -3 -14 4 -6 -1 -8 -12 -6 -11 2 -22 17
-28 36 -10 35 -28 41 -48 16 -29 -34 -137 -124 -150 -124 -7 0 -9 -21 -5 -64
3 -35 2 -79 -3 -96 -8 -28 -7 -33 11 -37 10 -3 22 -17 25 -32 3 -14 7 -31 9
-37 2 -6 -1 -16 -7 -22 -6 -6 -12 -25 -13 -42 -1 -22 3 -30 15 -30 21 0 45
-27 53 -59 4 -17 0 -29 -16 -41 l-22 -18 25 -20 c24 -19 24 -22 12 -67 -13
-51 -77 -151 -111 -175 -12 -8 -21 -20 -21 -27 0 -7 -4 -13 -8 -13 -4 0 -19
-18 -32 -40 -15 -24 -31 -39 -40 -37 -12 3 -16 -6 -16 -35 -1 -21 3 -38 9 -38
7 0 7 -4 -1 -12 -7 -7 -12 -22 -12 -35 l0 -23 440 0 440 0 0 416 0 417 -48
-47 c-26 -26 -63 -63 -83 -83 -26 -25 -38 -31 -41 -22 -5 13 37 80 55 87 4 2
7 14 7 26 0 25 35 76 51 76 6 0 7 -4 4 -10 -3 -5 -1 -10 4 -10 6 0 11 8 11 18
0 28 11 34 25 15 11 -14 13 1 14 87 l1 104 -22 -20 c-13 -10 -36 -31 -51 -46
-58 -54 -91 -38 -41 21 14 17 26 40 27 51 1 11 10 29 22 38 20 17 20 17 1 -5
-21 -25 -16 -29 15 -12 11 5 17 14 14 18 -2 5 3 8 13 7 15 -1 17 11 20 99 l3
99 -23 -21 c-13 -12 -37 -28 -54 -35 -29 -12 -114 -100 -114 -117 0 -10 -79
-41 -105 -41 -15 0 -16 3 -7 12 7 7 12 21 12 32 1 30 20 59 58 91 26 22 36 25
42 15 12 -20 83 26 75 49 -4 12 7 27 34 49 38 31 69 43 56 22 -3 -5 0 -10 8
-10 11 0 14 13 12 53 -3 81 -4 89 -15 82 -5 -3 -10 -2 -10 4 0 5 6 12 13 14 8
4 7 6 -4 6 -8 1 -34 -15 -58 -35z m-221 -340 c0 -8 -4 -12 -10 -9 -5 3 -10 10
-10 16 0 5 5 9 10 9 6 0 10 -7 10 -16z m-78 -155 c-37 -33 -69 -40 -53 -11 5
9 22 31 38 47 26 29 29 30 38 12 7 -16 3 -25 -23 -48z m233 -39 c3 -5 1 -10
-4 -10 -6 0 -11 5 -11 10 0 6 2 10 4 10 3 0 8 -4 11 -10z m-123 -118 c-15 -37
-98 -131 -124 -141 -24 -8 -30 -7 -39 10 -7 15 -7 24 2 35 6 8 8 14 5 14 -4 0
0 10 8 22 11 15 28 23 51 25 22 1 44 11 60 27 30 30 47 34 37 8z m-181 -151
l23 -19 -27 -36 c-16 -20 -31 -36 -35 -36 -4 0 -26 -18 -50 -40 -24 -22 -49
-40 -57 -40 -20 0 -19 9 3 29 28 24 44 59 37 80 -4 13 5 28 30 50 42 36 45 37
76 12z m425 -115 c9 -23 -54 -95 -76 -89 -19 5 -17 31 4 45 7 5 6 8 -4 8 -12
1 -11 3 3 11 9 6 14 15 11 21 -4 6 -3 8 2 5 6 -3 16 -2 24 4 21 12 30 11 36
-5z m-350 -84 c38 18 49 -2 22 -42 -34 -49 -53 -58 -77 -36 -12 11 -21 22 -21
26 0 15 44 63 48 52 2 -8 10 -8 28 0z m250 -35 c9 -9 -39 -57 -56 -57 -16 0
-17 2 -2 34 11 25 21 33 35 30 11 -2 21 -5 23 -7z m-104 -115 c12 -12 -51 -99
-89 -122 -22 -14 -26 -13 -39 4 -25 35 -16 53 49 100 15 10 24 22 22 26 -7 12
44 5 57 -8z"/>
<path d="M900 1399 c0 -5 5 -7 10 -4 6 3 10 8 10 11 0 2 -4 4 -10 4 -5 0 -10
-5 -10 -11z"/>
<path d="M930 1359 c0 -5 5 -7 10 -4 6 3 10 8 10 11 0 2 -4 4 -10 4 -5 0 -10
-5 -10 -11z"/>
<path d="M845 1350 c-3 -5 3 -10 14 -10 11 0 23 5 26 10 3 6 -3 10 -14 10 -11
0 -23 -4 -26 -10z"/>
<path d="M4507 1258 c-8 -12 -18 -33 -22 -46 l-7 -23 -23 25 c-27 29 -55 34
-55 11 0 -8 -9 -15 -20 -15 -27 0 -25 -14 5 -28 20 -9 23 -9 18 3 -3 8 -1 15
5 15 5 0 9 -18 9 -40 0 -22 -2 -40 -4 -40 -2 0 -16 7 -31 16 l-27 16 23 -20
c12 -11 22 -28 22 -37 0 -14 -4 -14 -27 5 -34 26 -43 17 -48 -53 -2 -31 -10
-69 -18 -84 -13 -25 -13 -28 7 -46 16 -14 17 -17 4 -13 -12 3 -15 1 -12 -9 3
-7 -4 -19 -17 -25 -20 -11 -20 -13 -6 -22 11 -6 25 -3 43 8 21 14 30 15 45 6
25 -16 32 -15 78 5 38 16 40 20 53 83 7 36 12 73 10 83 -1 10 3 15 8 12 6 -3
10 5 10 19 0 13 -6 27 -12 29 -8 3 -6 6 5 6 12 1 17 9 17 32 0 17 4 38 9 48 7
11 6 30 -3 54 -17 49 -22 53 -39 25z m29 -55 c-10 -10 -19 5 -10 18 6 11 8 11
12 0 2 -7 1 -15 -2 -18z m-16 -33 c0 -11 -4 -20 -10 -20 -5 0 -10 9 -10 20 0
11 5 20 10 20 6 0 10 -9 10 -20z m-60 -87 c0 -22 -2 -25 -10 -13 -13 20 -13
40 0 40 6 0 10 -12 10 -27z m-70 -80 c0 -7 10 -27 22 -43 12 -16 20 -31 17
-33 -2 -3 -24 -7 -49 -11 -41 -6 -43 -5 -20 7 31 16 36 38 16 79 -20 39 -20
44 -1 28 8 -7 15 -19 15 -27z m-23 -19 c-3 -3 -12 -4 -19 -1 -8 3 -5 6 6 6 11
1 17 -2 13 -5z m109 -35 c-15 -9 -16 -13 -5 -20 10 -6 8 -9 -9 -9 -20 0 -21 2
-10 20 7 11 20 20 28 20 11 -1 10 -3 -4 -11z"/>
<path d="M4144 1233 c-3 -10 -10 -29 -15 -43 -5 -14 -8 -37 -7 -50 2 -17 -2
-25 -12 -25 -30 -1 -41 -15 -29 -37 10 -18 8 -25 -10 -39 -12 -10 -17 -20 -11
-24 14 -9 110 -19 110 -11 0 6 34 139 45 176 3 11 -2 16 -16 16 -18 0 -20 -5
-15 -31 5 -28 5 -29 -9 -11 -8 11 -15 34 -14 50 0 17 3 25 6 19 2 -7 9 -13 14
-13 6 0 5 8 -1 20 -13 25 -29 26 -36 3z m16 -127 c0 -3 -4 -8 -10 -11 -5 -3
-10 -1 -10 4 0 6 5 11 10 11 6 0 10 -2 10 -4z m2 -51 c-3 -17 -11 -25 -24 -25
-18 0 -19 2 -7 18 12 14 30 31 35 32 1 0 -1 -11 -4 -25z"/>
<path d="M3455 1178 c-4 -10 -15 -18 -25 -18 -26 0 -42 -24 -34 -54 5 -21 11
-25 30 -22 13 3 28 7 33 10 16 10 101 24 96 16 -3 -4 1 -10 9 -13 9 -4 13 0
11 11 -2 18 -28 20 -113 8 -27 -4 -41 -2 -37 4 3 6 1 10 -4 10 -6 0 -11 4 -11
9 0 6 9 9 20 8 11 -1 20 -7 20 -15 0 -9 9 -7 30 8 17 12 27 26 23 33 -5 8 -8
7 -11 -2 -3 -8 -8 -7 -17 6 -13 17 -14 17 -20 1z"/>
<path d="M4227 1153 c-3 -16 -8 -38 -12 -50 -5 -16 -3 -25 9 -29 22 -9 34 5
16 16 -13 8 -12 10 2 10 14 0 16 6 12 33 -4 24 -3 28 5 17 6 -8 11 -10 11 -4
0 11 -20 34 -31 34 -4 0 -9 -12 -12 -27z"/>
<path d="M4566 1163 c-13 -13 -6 -42 9 -37 9 4 15 0 15 -7 0 -11 3 -11 10 1 5
8 10 18 10 22 0 11 -36 28 -44 21z"/>
<path d="M4616 1110 c-13 -43 -14 -79 -2 -89 10 -9 15 -8 20 5 9 23 7 67 -4
84 -8 13 -9 13 -14 0z"/>
<path d="M4300 1101 c0 -7 -4 -10 -9 -6 -11 6 -31 -26 -31 -49 0 -10 9 -16 24
-16 19 0 25 6 29 33 3 17 1 36 -4 42 -6 5 -9 4 -9 -4z"/>
<path d="M3505 1080 c-3 -5 -3 -14 0 -20 10 -16 -7 -11 -19 6 -11 14 -13 14
-25 0 -11 -13 -9 -17 15 -28 38 -17 57 -35 49 -48 -3 -6 0 -7 9 -4 9 3 15 9
14 12 -2 19 3 32 13 32 5 0 7 -5 4 -10 -4 -7 8 -9 32 -8 32 3 39 7 41 27 4 24
3 24 -22 8 -33 -22 -36 -22 -36 8 0 22 -3 25 -25 19 -15 -4 -25 -2 -25 5 0 14
-17 14 -25 1z"/>
<path d="M3605 1070 c-3 -6 1 -7 9 -4 18 7 21 14 7 14 -6 0 -13 -4 -16 -10z"/>
<path d="M3680 1070 c0 -5 5 -10 10 -10 6 0 10 5 10 10 0 6 -4 10 -10 10 -5 0
-10 -4 -10 -10z"/>
<path d="M4540 1053 c0 -16 -7 -50 -15 -76 -13 -45 -13 -48 3 -45 11 2 17 13
18 35 1 17 8 39 18 48 23 24 21 65 -4 65 -15 0 -20 -7 -20 -27z"/>
<path d="M4668 1063 c-14 -16 -25 -54 -43 -137 -6 -26 -4 -28 9 -17 28 23 18
-8 -10 -34 -17 -16 -30 -42 -35 -71 -8 -41 -6 -49 10 -60 10 -7 21 -24 24 -36
5 -21 3 -20 -18 7 -13 16 -26 27 -29 25 -2 -3 -6 -23 -8 -45 -3 -38 -2 -40 24
-37 29 4 41 -8 32 -32 -8 -21 -54 -21 -54 -1 0 8 -4 15 -10 15 -15 0 -12 -16
10 -52 24 -39 25 -48 6 -48 -8 0 -17 -8 -19 -17 -4 -14 -5 -12 -6 5 0 12 -6
22 -12 22 -7 0 -9 -9 -5 -22 4 -13 9 -38 13 -56 5 -28 3 -32 -16 -32 -18 0
-21 -6 -21 -37 l0 -38 25 30 c26 32 33 23 14 -18 -8 -17 -17 -23 -30 -20 -21
6 -27 -21 -8 -32 7 -5 3 -12 -9 -21 -23 -16 -32 -52 -21 -82 6 -15 4 -20 -5
-16 -10 4 -15 -6 -18 -33 -4 -31 0 -42 20 -61 l25 -23 -7 28 -7 28 25 -30 c28
-34 25 -45 -10 -45 -33 0 -31 -18 4 -22 16 -2 31 -12 36 -25 9 -19 18 -21 76
-22 l66 0 -3 32 -2 32 11 -32 c8 -25 17 -33 36 -33 l25 0 -7 90 c-5 62 -4 90
3 90 7 0 11 -32 11 -90 l0 -90 56 0 57 0 -6 40 c-5 40 -5 40 29 40 25 0 34 4
35 18 0 10 3 12 6 5 6 -17 50 -17 56 0 3 8 1 20 -3 27 -6 10 -2 17 13 25 30
15 34 45 8 52 -17 4 -19 8 -10 19 15 18 3 48 -16 40 -12 -4 -14 0 -9 19 5 19
2 25 -10 25 -10 0 -16 9 -17 23 0 13 -6 3 -15 -25 -14 -46 -32 -70 -21 -28 3
10 -1 27 -9 37 -7 10 -14 33 -14 51 0 35 -6 38 -45 20 -14 -6 -28 -9 -31 -6
-3 3 4 32 16 64 11 32 20 62 20 66 0 16 -36 7 -73 -17 l-37 -26 10 25 c5 14
19 44 30 67 37 71 9 206 -29 142 -17 -29 -13 4 9 85 20 71 27 177 13 185 -18
10 -53 -15 -72 -50 -25 -48 -25 -43 -1 37 30 93 11 152 -32 103z m66 -242 l-7
-36 -9 27 c-6 18 -5 41 4 70 l12 43 4 -34 c2 -19 0 -51 -4 -70z m-44 -22 c0
-5 -15 -9 -32 -9 -20 0 -28 3 -21 8 18 11 53 12 53 1z m0 -99 c0 -5 -10 -10
-22 -9 -22 0 -22 1 -3 9 11 5 21 9 23 9 1 1 2 -3 2 -9z m60 -95 c-14 -65 -38
-118 -49 -111 -15 10 14 115 43 154 15 21 17 7 6 -43z m-87 -75 c3 -11 4 -20
3 -20 -2 0 -11 9 -21 20 -15 17 -16 20 -3 20 9 0 18 -9 21 -20z m-53 -44 c0
-6 -5 -3 -11 7 -6 9 -15 14 -21 11 -7 -4 -8 -2 -4 5 9 14 36 -3 36 -23z m70
-5 c0 -11 4 -22 9 -25 5 -3 14 -20 20 -38 11 -30 10 -30 -7 -15 -10 10 -30 17
-43 17 -14 0 -33 6 -43 13 -16 12 -16 14 -2 26 14 12 16 10 16 -9 0 -23 1 -23
20 -5 13 11 18 25 14 37 -3 10 -1 18 5 18 6 0 11 -9 11 -19z m-90 -86 c0 -8
-4 -15 -10 -15 -5 0 -10 7 -10 15 0 8 5 15 10 15 6 0 10 -7 10 -15z m17 -37
c-3 -8 -6 -5 -6 6 -1 11 2 17 5 13 3 -3 4 -12 1 -19z m53 12 c0 -5 -5 -10 -11
-10 -5 0 -7 5 -4 10 3 6 8 10 11 10 2 0 4 -4 4 -10z m-77 -35 c-3 -8 -9 -15
-14 -15 -10 0 -12 24 -3 33 11 11 24 -3 17 -18z m147 -15 c0 -5 -9 -10 -21
-10 -11 0 -17 5 -14 10 3 6 13 10 21 10 8 0 14 -4 14 -10z m110 6 c0 -2 -7 -7
-16 -10 -8 -3 -12 -2 -9 4 6 10 25 14 25 6z m-252 -81 c12 -25 22 -56 22 -68
-1 -16 -8 -7 -25 28 -14 28 -25 56 -25 63 0 6 -4 12 -8 12 -14 0 -32 -23 -32
-42 0 -10 -4 -18 -10 -18 -19 0 -10 39 12 54 34 24 42 20 66 -29z m162 -10 c0
-8 -4 -15 -10 -15 -5 0 -7 7 -4 15 4 8 8 15 10 15 2 0 4 -7 4 -15z m-196 -11
c3 -8 2 -12 -4 -9 -6 3 -10 10 -10 16 0 14 7 11 14 -7z m353 -16 c-3 -8 -6 -5
-6 6 -1 11 2 17 5 13 3 -3 4 -12 1 -19z m83 -12 c0 -3 -15 -15 -32 -27 l-33
-23 24 27 c22 24 41 35 41 23z m-348 -78 c-9 -9 -12 -7 -12 12 0 19 3 21 12
12 9 -9 9 -15 0 -24z m18 -38 c0 -5 -4 -10 -10 -10 -5 0 -10 5 -10 10 0 6 5
10 10 10 6 0 10 -4 10 -10z m-80 -27 c11 -10 20 -21 20 -26 0 -5 -6 -4 -13 2
-8 6 -17 8 -20 4 -4 -3 -7 1 -7 10 0 8 -6 18 -12 20 -10 4 -10 6 -1 6 7 1 22
-7 33 -16z"/>
<path d="M4193 1030 c-5 -22 -7 -40 -2 -40 4 0 14 -3 23 -6 12 -5 15 1 13 30
-4 55 -21 63 -34 16z"/>
<path d="M4250 1012 c0 -4 9 -13 19 -19 16 -10 20 -9 25 3 9 23 8 24 -19 24
-14 0 -25 -3 -25 -8z"/>
<path d="M4592 999 c1 -12 9 -24 16 -27 9 -3 13 3 10 19 -1 12 -9 24 -16 27
-9 3 -13 -3 -10 -19z"/>
<path d="M4242 978 c3 -7 13 -15 24 -17 16 -3 17 -1 5 13 -16 19 -34 21 -29 4z"/>
<path d="M4059 961 c-20 -16 -22 -23 -13 -38 6 -10 24 -19 40 -21 l29 -3 -24
20 -24 19 41 7 c42 7 58 25 23 25 -11 0 -26 2 -34 5 -7 3 -25 -3 -38 -14z"/>
<path d="M4574 946 c-3 -14 -3 -30 1 -35 3 -6 1 -11 -5 -11 -15 0 -9 -42 6
-47 14 -4 39 90 29 107 -11 17 -24 11 -31 -14z"/>
<path d="M4170 950 c0 -5 9 -10 20 -10 11 0 20 5 20 10 0 6 -9 10 -20 10 -11
0 -20 -4 -20 -10z"/>
<path d="M4240 930 c8 -5 20 -10 25 -10 6 0 3 5 -5 10 -8 5 -19 10 -25 10 -5
0 -3 -5 5 -10z"/>
<path d="M3490 908 c0 -4 4 -8 9 -8 6 0 12 4 15 8 3 5 -1 9 -9 9 -8 0 -15 -4
-15 -9z"/>
<path d="M3434 889 c0 -20 11 -25 20 -10 3 5 0 13 -7 19 -10 8 -13 6 -13 -9z"/>
<path d="M4503 895 c-7 -19 -4 -22 22 -27 14 -2 21 3 23 20 3 17 -2 22 -18 22
-11 0 -23 -7 -27 -15z"/>
<path d="M3480 879 c0 -5 5 -7 10 -4 6 3 10 8 10 11 0 2 -4 4 -10 4 -5 0 -10
-5 -10 -11z"/>
<path d="M4180 880 c0 -5 5 -10 11 -10 5 0 7 5 4 10 -3 6 -8 10 -11 10 -2 0
-4 -4 -4 -10z"/>
<path d="M4032 866 c13 -9 14 -16 6 -24 -9 -9 -6 -17 10 -35 12 -13 22 -30 22
-38 0 -9 -8 -5 -21 11 -12 14 -19 18 -16 8 7 -19 -22 -30 -46 -16 -13 7 -15 5
-10 -9 12 -31 39 -54 56 -47 10 3 17 1 17 -5 0 -6 -7 -11 -15 -11 -19 0 -19
-5 2 -30 21 -25 29 -25 36 -2 2 9 8 25 12 35 5 12 2 17 -11 18 -17 0 -17 1 1
9 27 10 49 76 29 84 -9 3 -14 -1 -14 -11 0 -14 -2 -14 -14 3 -9 12 -11 21 -4
25 6 4 6 9 2 11 -10 5 15 -1 34 -9 7 -3 12 3 12 15 0 24 -18 32 -68 32 -33 -1
-35 -2 -20 -14z"/>
<path d="M4215 870 c-4 -6 3 -10 14 -10 25 0 27 6 6 13 -8 4 -17 2 -20 -3z"/>
<path d="M4144 833 c-3 -10 -9 -25 -14 -34 -6 -12 -3 -22 11 -35 21 -19 27 -6
7 14 -10 10 -8 14 9 18 20 6 37 37 25 48 -11 12 -33 5 -38 -11z"/>
<path d="M4443 843 c4 -7 0 -13 -10 -15 -14 -2 -12 -6 10 -21 26 -17 27 -17
27 2 0 10 -8 25 -17 32 -9 8 -14 9 -10 2z"/>
<path d="M4207 834 c-16 -16 -6 -35 16 -32 12 2 22 10 22 18 0 16 -26 25 -38
14z"/>
<path d="M4333 824 c-17 -12 -26 -13 -42 -4 -17 9 -22 8 -27 -4 -3 -8 -3 -20
1 -26 3 -5 1 -10 -6 -10 -7 0 -10 -13 -7 -35 3 -25 0 -35 -10 -35 -7 0 -10 -5
-7 -10 4 -6 11 -8 16 -4 11 7 103 -12 137 -28 36 -18 25 -28 -13 -12 -41 17
-45 17 -45 4 0 -5 7 -10 16 -10 8 0 12 -4 9 -10 -3 -5 -21 -10 -38 -10 -30 1
-31 1 -13 15 20 15 18 25 -6 29 -7 1 -19 5 -25 9 -7 5 -13 4 -13 -2 0 -6 -7
-8 -15 -5 -10 4 -18 -3 -25 -21 -14 -36 -13 -37 9 -30 16 5 18 2 14 -16 -6
-21 -4 -22 28 -15 19 4 57 11 86 15 60 9 83 24 83 57 0 12 5 35 10 49 11 30 2
55 -38 98 -29 30 -47 33 -79 11z m9 -61 c21 -20 38 -32 38 -27 0 6 -9 19 -20
29 -11 10 -18 21 -15 23 8 8 85 -70 85 -86 0 -12 -3 -12 -15 -2 -8 6 -19 9
-25 5 -5 -3 -10 -1 -10 5 0 7 -13 9 -37 4 -34 -6 -37 -6 -25 9 18 21 6 56 -21
67 -12 5 -16 9 -7 9 8 1 31 -16 52 -36z m-43 -4 c5 8 11 9 15 3 3 -6 2 -14 -4
-17 -15 -9 -40 2 -40 17 0 9 3 9 10 -2 8 -12 11 -13 19 -1z"/>
<path d="M4492 818 c-15 -15 -16 -38 -2 -38 6 0 10 -7 10 -15 0 -26 17 -16 23
13 7 33 -13 58 -31 40z"/>
<path d="M4541 792 c-12 -45 -10 -84 5 -89 16 -5 33 115 17 121 -8 3 -16 -8
-22 -32z"/>
<path d="M5231 789 c1 -24 5 -55 9 -69 6 -17 8 -5 5 38 -4 73 -16 98 -14 31z"/>
<path d="M297 793 c-10 -9 -9 -23 2 -23 5 0 11 7 15 15 5 15 -5 20 -17 8z"/>
<path d="M3995 790 c3 -5 8 -10 11 -10 2 0 4 5 4 10 0 6 -5 10 -11 10 -5 0 -7
-4 -4 -10z"/>
<path d="M4171 725 c-26 -80 -26 -91 -2 -98 14 -3 21 2 26 20 3 13 3 28 0 32
-3 5 2 12 11 15 12 5 14 13 9 33 -4 16 -2 29 6 33 6 4 8 13 5 19 -16 25 -34 7
-55 -54z"/>
<path d="M5066 774 c-9 -24 -2 -26 12 -4 7 11 8 20 3 20 -5 0 -12 -7 -15 -16z"/>
<path d="M58 753 c-16 -2 -28 -9 -28 -15 0 -6 10 -8 23 -4 12 3 28 6 35 6 6 0
12 5 12 10 0 6 -3 9 -7 9 -5 -1 -20 -4 -35 -6z"/>
<path d="M4104 715 c-14 -45 -1 -53 31 -21 25 25 32 46 16 46 -5 0 -15 2 -23
5 -8 3 -17 -7 -24 -30z"/>
<path d="M4462 684 c-8 -40 -8 -62 -1 -76 12 -22 17 -21 22 8 2 10 9 32 16 49
10 23 9 34 0 52 -7 13 -15 23 -19 23 -3 0 -11 -25 -18 -56z"/>
<path d="M5016 653 c-34 -105 -47 -176 -37 -186 8 -8 11 -5 11 10 0 12 8 23
18 25 16 4 19 16 20 73 1 37 4 81 7 97 10 45 -2 33 -19 -19z"/>
<path d="M4520 682 c0 -17 0 -18 -10 -54 -7 -22 -6 -36 3 -47 10 -12 9 -14 -5
-8 -12 4 -18 2 -18 -8 0 -18 27 -20 33 -2 2 6 0 20 -5 29 -6 14 -5 16 7 12 17
-7 21 11 5 21 -16 10 -12 25 5 19 8 -4 15 -2 15 2 -1 14 -30 49 -30 36z"/>
<path d="M4103 662 c-13 -2 -23 -8 -23 -13 0 -13 37 -11 45 2 9 14 5 16 -22
11z"/>
<path d="M5220 648 c0 -16 17 -44 24 -38 13 14 9 45 -6 48 -10 2 -18 -2 -18
-10z"/>
<path d="M4073 604 c-3 -8 0 -27 8 -41 l14 -25 6 23 c11 38 10 46 -6 53 -9 3
-18 -1 -22 -10z"/>
<path d="M3927 575 c-9 -20 -17 -38 -17 -41 0 -3 25 -3 57 -1 39 3 60 9 70 22
16 24 17 48 1 43 -7 -3 -13 -10 -13 -17 0 -6 -6 -16 -14 -20 -15 -10 -51 -3
-51 10 0 5 8 6 18 2 15 -6 15 -4 -2 15 -25 29 -29 28 -49 -13z"/>
<path d="M4151 590 c-14 -8 -7 -30 9 -30 11 0 21 28 12 34 -5 3 -14 1 -21 -4z"/>
<path d="M5210 563 c0 -20 -3 -34 -6 -30 -3 3 -24 -4 -45 -15 -29 -15 -46 -34
-64 -73 -14 -28 -25 -55 -25 -59 0 -4 -7 -14 -15 -23 -12 -12 -13 -18 -4 -29
9 -11 8 -18 -1 -29 -10 -12 -10 -15 1 -15 22 0 68 51 62 68 -5 11 -2 14 10 9
18 -7 24 8 7 18 -5 3 -10 12 -9 18 0 9 2 9 6 0 8 -22 26 -14 20 8 -7 25 17 53
38 45 8 -3 18 2 23 10 8 15 12 15 40 0 17 -9 34 -20 37 -26 3 -5 10 -10 16
-10 16 0 10 26 -11 45 -11 10 -20 24 -20 30 0 7 -7 15 -15 19 -9 3 -15 0 -15
-9 0 -8 -4 -15 -10 -15 -11 0 -11 14 0 50 5 17 8 19 9 8 1 -20 16 -24 26 -7 8
11 -27 49 -45 49 -5 0 -10 -16 -10 -37z m-120 -213 c0 -5 -7 -10 -16 -10 -8 0
-12 5 -9 10 3 6 10 10 16 10 5 0 9 -4 9 -10z"/>
<path d="M4190 564 c0 -8 5 -12 10 -9 6 3 10 10 10 16 0 5 -4 9 -10 9 -5 0
-10 -7 -10 -16z"/>
<path d="M4449 573 c-19 -5 -57 -121 -43 -131 5 -4 9 -13 9 -19 0 -7 5 -13 10
-12 6 0 9 11 8 25 -1 13 3 24 8 24 5 0 7 11 3 25 -4 17 1 33 15 51 21 27 27
45 14 43 -5 -1 -15 -3 -24 -6z"/>
<path d="M4041 523 c-11 -39 -7 -53 13 -53 19 0 27 50 10 57 -11 4 -12 9 -3
19 8 10 8 14 1 14 -6 0 -16 -16 -21 -37z"/>
<path d="M4116 544 c-8 -22 -8 -24 9 -24 9 0 12 -6 9 -15 -4 -8 -2 -15 4 -15
12 0 25 47 17 60 -9 15 -32 12 -39 -6z"/>
<path d="M4191 541 c-11 -7 -10 -11 5 -20 17 -9 17 -10 -6 -11 l-25 0 24 -19
25 -19 -26 5 c-23 4 -27 0 -38 -32 -7 -20 -10 -39 -6 -42 3 -3 -2 -12 -10 -20
-9 -9 -12 -23 -8 -35 4 -13 2 -18 -4 -14 -5 3 -12 -4 -16 -17 -3 -12 -1 -23 4
-25 6 -2 10 -11 10 -20 1 -13 7 -10 26 11 l24 29 20 -24 c14 -17 19 -19 20 -8
0 9 5 21 12 28 9 9 17 7 35 -10 21 -20 24 -20 41 -5 14 12 21 14 30 5 19 -19
28 41 9 71 -17 29 -40 41 -31 17 8 -20 -8 -20 -61 -1 -26 9 -41 11 -44 4 -2
-6 -11 -3 -21 6 -28 25 -9 63 29 57 20 -3 30 1 35 14 4 9 2 21 -4 24 -8 5 -6
9 5 14 10 3 24 1 31 -5 23 -19 36 -6 18 19 -11 17 -19 20 -28 13 -9 -8 -18 -6
-32 4 -22 17 -25 17 -43 6z m19 -179 c0 -5 -7 -9 -15 -9 -8 0 -12 4 -9 9 3 4
9 8 15 8 5 0 9 -4 9 -8z m45 -2 c3 -5 2 -10 -4 -10 -5 0 -13 5 -16 10 -3 6 -2
10 4 10 5 0 13 -4 16 -10z m83 -24 c3 -3 -6 -6 -21 -6 -14 0 -33 -3 -43 -7
-16 -6 -17 -5 -4 8 13 15 55 18 68 5z m-128 -16 c0 -5 -4 -10 -10 -10 -5 0
-10 5 -10 10 0 6 5 10 10 10 6 0 10 -4 10 -10z"/>
<path d="M4486 532 c-3 -5 -8 -24 -11 -42 -3 -18 -8 -37 -11 -42 -3 -4 2 -15
10 -23 14 -14 16 -13 21 12 4 15 10 38 15 50 14 34 -7 72 -24 45z"/>
<path d="M4095 487 c-8 -32 6 -53 29 -44 21 8 20 20 -3 48 l-19 24 -7 -28z"/>
<path d="M4300 480 c-10 -6 -11 -12 -5 -19 6 -6 22 -3 45 9 l35 19 -30 0 c-16
1 -37 -4 -45 -9z"/>
<path d="M4040 441 c0 -5 5 -13 10 -16 6 -3 10 -2 10 4 0 5 -4 13 -10 16 -5 3
-10 2 -10 -4z"/>
<path d="M5171 434 c0 -11 3 -14 6 -6 3 7 2 16 -1 19 -3 4 -6 -2 -5 -13z"/>
<path d="M5230 432 c0 -11 9 -27 21 -38 17 -16 22 -16 29 -4 14 22 13 26 -15
44 -31 20 -35 20 -35 -2z m44 -33 c-8 -13 -24 -1 -24 18 0 13 3 13 15 3 8 -7
12 -16 9 -21z"/>
<path d="M3950 424 c0 -11 -10 -13 -35 -11 -19 3 -35 1 -35 -4 0 -5 -7 -6 -15
-3 -8 4 -15 1 -15 -5 0 -6 3 -10 8 -10 20 3 30 -3 35 -21 3 -11 0 -20 -6 -20
-8 0 -8 -3 1 -8 7 -5 10 -16 6 -25 -7 -19 8 -22 37 -6 22 11 15 34 -7 25 -8
-3 -14 -2 -14 3 0 11 25 32 42 35 30 4 40 17 26 34 -10 12 -10 14 0 8 6 -4 12
-3 12 2 0 5 -9 12 -20 15 -13 3 -20 0 -20 -9z"/>
<path d="M5196 432 c-11 -17 43 -97 57 -83 8 8 4 18 -15 38 -14 16 -27 35 -30
43 -3 10 -6 11 -12 2z"/>
<path d="M4006 401 c-6 -9 2 -41 11 -41 12 0 34 31 28 40 -8 12 -32 13 -39 1z"/>
<path d="M4453 385 c0 -18 5 -25 18 -25 18 0 19 1 3 25 -9 14 -17 25 -19 25
-1 0 -2 -11 -2 -25z"/>
<path d="M4063 363 c3 -22 0 -46 -5 -54 -8 -11 -9 -10 -4 3 10 32 -12 28 -23
-4 -10 -28 -9 -35 5 -45 19 -14 36 -8 33 10 -1 7 5 28 13 47 15 31 15 35 -1
48 -14 12 -14 12 7 7 13 -4 22 -2 22 4 0 6 -4 11 -9 11 -5 0 -17 3 -26 6 -14
6 -16 1 -12 -33z"/>
<path d="M4376 364 c-3 -9 -6 -26 -6 -38 0 -12 -5 -27 -12 -34 -9 -9 -9 -12 0
-12 6 0 17 9 24 19 6 11 18 17 26 13 10 -3 13 0 10 9 -3 8 -11 13 -17 11 -7
-1 -9 7 -5 23 7 27 -10 35 -20 9z"/>
<path d="M3800 345 c0 -18 12 -19 28 -3 9 9 12 8 12 -5 0 -9 5 -17 10 -17 16
0 11 27 -6 34 -27 10 -44 7 -44 -9z"/>
<path d="M3970 340 c0 -5 5 -10 10 -10 6 0 10 5 10 10 0 6 -4 10 -10 10 -5 0
-10 -4 -10 -10z"/>
<path d="M4440 327 c0 -22 4 -28 18 -25 17 3 25 29 8 27 -5 0 -13 5 -17 13 -6
9 -9 4 -9 -15z"/>
<path d="M5128 336 c-10 -7 -18 -21 -18 -30 0 -9 -7 -16 -15 -16 -18 0 -20
-16 -2 -23 7 -3 5 -6 -5 -6 -25 -1 -23 -21 1 -21 11 0 23 5 26 10 3 6 14 10
23 10 13 0 10 -6 -12 -25 -16 -14 -33 -25 -38 -25 -5 0 -6 -5 -3 -10 4 -6 1
-17 -5 -25 -9 -11 -9 -15 -1 -15 6 0 11 5 11 10 0 6 7 10 15 10 9 0 12 6 9 15
-6 15 17 21 55 15 13 -1 13 1 2 14 -9 10 -10 21 -4 29 13 18 16 67 4 67 -6 0
-11 -4 -11 -10 0 -5 -5 -10 -12 -10 -9 0 -9 3 0 12 13 13 16 38 5 38 -5 0 -16
-7 -25 -14z"/>
<path d="M5210 320 c0 -5 5 -10 10 -10 6 0 10 5 10 10 0 6 -4 10 -10 10 -5 0
-10 -4 -10 -10z"/>
<path d="M3990 309 c0 -6 -6 -9 -14 -6 -21 8 -42 -69 -24 -91 11 -13 11 -14 0
-8 -18 11 -46 -25 -29 -36 9 -6 8 -11 -3 -17 -12 -9 -12 -11 4 -17 26 -10 39
16 19 38 -15 17 -15 18 8 16 20 -3 24 1 22 20 -2 12 1 22 6 22 9 0 31 53 31
76 0 8 -4 14 -10 14 -5 0 -10 -5 -10 -11z"/>
<path d="M3845 299 c-4 -5 1 -9 10 -9 11 0 15 -5 12 -14 -3 -7 -1 -18 5 -24 6
-6 6 -12 -1 -16 -6 -4 -11 -2 -11 3 0 6 -5 11 -11 11 -16 0 -2 -47 21 -72 19
-20 19 -20 34 17 9 21 16 41 16 46 0 5 5 18 12 29 7 10 9 23 5 27 -5 4 -12 1
-17 -7 -8 -13 -13 -13 -40 2 -17 10 -32 13 -35 7z"/>
<path d="M4380 239 c0 -5 5 -7 10 -4 6 3 10 8 10 11 0 2 -4 4 -10 4 -5 0 -10
-5 -10 -11z"/>
<path d="M4155 230 c3 -5 11 -10 16 -10 6 0 7 5 4 10 -3 6 -11 10 -16 10 -6 0
-7 -4 -4 -10z"/>
<path d="M4410 216 c0 -14 -4 -28 -10 -31 -16 -10 -12 -22 10 -28 22 -6 25 -3
33 33 5 19 1 29 -13 38 -18 11 -20 10 -20 -12z"/>
<path d="M3754 205 c-9 -38 1 -40 26 -6 21 31 21 31 1 31 -14 0 -23 -9 -27
-25z"/>
<path d="M4123 213 c-19 -7 -16 -40 5 -52 11 -7 12 -10 3 -11 -7 0 -11 -6 -8
-14 5 -12 0 -12 -30 0 -40 17 -49 12 -62 -33 -7 -25 -6 -33 6 -37 24 -10 58
-7 71 6 9 9 20 9 48 -1 19 -7 38 -10 41 -7 3 3 15 0 26 -5 18 -10 19 -9 14 12
-4 13 -7 27 -7 32 0 12 -29 8 -37 -6 -5 -9 -17 -11 -33 -7 -24 6 -24 6 8 13
29 6 46 27 22 27 -5 0 -10 9 -10 20 0 12 -10 24 -22 30 -22 8 -21 9 7 9 17 1
25 5 20 10 -14 12 -48 20 -62 14z m-33 -107 c0 -11 -19 -15 -25 -6 -3 5 1 10
9 10 9 0 16 -2 16 -4z"/>
<path d="M4204 195 c3 -8 1 -15 -4 -15 -6 0 -10 -4 -10 -10 0 -5 7 -10 15 -10
8 0 15 6 15 13 0 8 4 7 10 -3 9 -13 11 -13 20 0 18 27 11 40 -21 40 -24 0 -30
-4 -25 -15z"/>
<path d="M4266 168 c-11 -15 -25 -21 -48 -20 -31 1 -32 0 -14 -14 23 -17 46
-18 46 -3 0 5 5 7 12 3 7 -5 8 -3 3 6 -6 10 -4 12 8 7 10 -3 17 -2 17 2 0 5 3
16 6 25 9 24 -12 19 -30 -6z"/>
<path d="M4311 146 c-4 -17 -8 -31 -7 -32 1 -1 13 -4 29 -8 21 -5 27 -3 27 9
0 9 -7 18 -15 21 -22 9 -18 26 4 19 11 -3 21 0 24 9 4 11 -2 14 -24 14 -24 -1
-31 -7 -38 -32z"/>
<path d="M4005 150 c3 -5 11 -10 16 -10 6 0 7 5 4 10 -3 6 -11 10 -16 10 -6 0
-7 -4 -4 -10z"/>
<path d="M3970 140 c0 -5 5 -10 10 -10 6 0 10 5 10 10 0 6 -4 10 -10 10 -5 0
-10 -4 -10 -10z"/>
<path d="M3773 129 c-31 -11 -29 -31 6 -52 37 -22 36 -22 38 12 3 36 -14 52
-44 40z"/>
<path d="M3886 94 c-8 -21 23 -59 37 -45 7 7 5 16 -4 27 -8 9 -13 20 -11 23 2
3 -1 7 -6 9 -5 1 -12 -5 -16 -14z"/>
<path d="M3996 102 c-2 -4 -1 -14 3 -21 6 -9 10 -7 14 8 5 20 -7 29 -17 13z"/>
<path d="M4240 101 c0 -6 9 -15 21 -21 18 -10 20 -9 17 7 -3 19 -38 32 -38 14z"/>
<path d="M5044 53 l-51 -53 49 0 c45 0 48 2 39 19 -8 14 -6 27 5 51 9 17 14
32 13 33 -2 1 -27 -22 -55 -50z"/>
<path d="M4300 85 c0 -9 7 -18 15 -21 22 -9 18 -24 -6 -24 -11 0 -17 -5 -14
-10 9 -14 42 -13 47 2 5 15 -20 68 -33 68 -5 0 -9 -7 -9 -15z"/>
<path d="M4960 65 c0 -9 5 -15 11 -13 6 2 11 8 11 13 0 5 -5 11 -11 13 -6 2
-11 -4 -11 -13z"/>
<path d="M4436 48 c-10 -41 -7 -48 23 -48 39 0 46 14 24 45 -23 31 -39 32 -47
3z"/>
<path d="M3940 50 c0 -5 5 -10 10 -10 6 0 10 5 10 10 0 6 -4 10 -10 10 -5 0
-10 -4 -10 -10z"/>
<path d="M4360 31 c0 -16 18 -31 38 -31 4 0 8 11 8 25 2 20 -3 25 -22 25 -17
0 -24 -6 -24 -19z"/>
<path d="M4962 28 c-16 -16 -15 -28 3 -28 8 0 15 9 15 20 0 23 -2 24 -18 8z"/>
<path d="M3750 15 c0 -11 11 -15 38 -15 l37 1 -25 14 c-33 19 -50 19 -50 0z"/>
<path d="M4180 15 c0 -10 10 -15 30 -15 20 0 30 5 30 15 0 10 -10 15 -30 15
-20 0 -30 -5 -30 -15z"/>
<path d="M4510 16 c0 -9 7 -16 16 -16 17 0 14 22 -4 28 -7 2 -12 -3 -12 -12z"/>
<path d="M4293 3 c9 -2 25 -2 35 0 9 3 1 5 -18 5 -19 0 -27 -2 -17 -5z"/>
</g>
</svg>
